<?xml version="1.0" standalone="no"?>
<!DOCTYPE svg PUBLIC "-//W3C//DTD SVG 1.1//EN" "http://www.w3.org/Graphics/SVG/1.1/DTD/svg11.dtd" >
<svg>
<metadata>
Created by FontForge 20120731 at Mon Jul  1 20:51:57 2019
 By www
Copyright 2010 URW++ Design &#38; Development Hamburg
</metadata>
<defs>
<font id="NeuzeitGroteskCondW01-Black" horiz-adv-x="513" >
  <font-face 
    font-family="NeuzeitGroteskCondW01-Black"
    font-weight="900"
    font-stretch="normal"
    units-per-em="1000"
    panose-1="1 0 0 0 0 0 0 0 0 0"
    ascent="800"
    descent="-200"
    x-height="490"
    cap-height="667"
    bbox="-27 -183 917 885"
    underline-thickness="50"
    underline-position="-125"
    unicode-range="U+0020-2122"
  />
<missing-glyph horiz-adv-x="291" 
 />
    <glyph glyph-name=".notdef" horiz-adv-x="291" 
 />
    <glyph glyph-name=".null" horiz-adv-x="0" 
 />
    <glyph glyph-name="nonmarkingreturn" horiz-adv-x="333" 
 />
    <glyph glyph-name="space" unicode=" " horiz-adv-x="291" 
 />
    <glyph glyph-name="exclam" unicode="!" horiz-adv-x="370" 
d="M261 210h-120l-15 457h150zM201 157q18 0 33 -6.5t26.5 -18t18 -26.5t6.5 -32q0 -35 -24.5 -59.5t-59.5 -24.5t-59 24.5t-24 59.5q0 34 24.5 58.5t58.5 24.5z" />
    <glyph glyph-name="quotedbl" unicode="&#x22;" horiz-adv-x="273" 
d="M6 347l24 181q4 27 6.5 36t8.5 17q14 19 40 19q17 0 28.5 -11t11.5 -28q0 -10 -3.5 -20t-11.5 -26l-85 -168h-19zM139 347l25 181q4 27 6.5 36t7.5 17q14 19 40 19q17 0 28.5 -11t11.5 -28q0 -18 -14 -46l-86 -168h-19z" />
    <glyph glyph-name="numbersign" unicode="#" 
d="M326 478l26 150h107l-27 -150h57l-18 -100h-56l-20 -113h57l-18 -100h-57l-26 -150h-100l26 150h-96l-27 -150h-100l27 150h-57l18 100h56l20 113h-57l18 100h57l26 150h100l-26 -150h90zM198 265h97l20 113h-97z" />
    <glyph glyph-name="dollar" unicode="$" 
d="M275 389q26 -8 42.5 -13.5t27.5 -10t18.5 -8t15.5 -8.5q93 -55 93 -161q0 -88 -51.5 -139.5t-145.5 -59.5v-92h-47v93q-92 7 -144 57t-54 132h133q3 -61 65 -75v163q-6 2 -8.5 3t-13.5 5q-88 29 -129 74.5t-41 114.5q0 60 28 104.5t80 67.5q19 9 37 13t47 7v74h47v-74
q45 -2 81 -16.5t60.5 -40t37 -60.5t10.5 -77h-130q-1 64 -59 80v-153zM228 543q-58 -12 -58 -63q0 -28 11.5 -42t46.5 -31v136zM275 105q32 8 45 23.5t13 45.5q0 28 -12 43.5t-46 32.5v-145z" />
    <glyph glyph-name="percent" unicode="%" horiz-adv-x="555" 
d="M152 660q28 0 52.5 -10.5t43 -28.5t29 -42.5t10.5 -52.5t-10.5 -52t-28.5 -42t-42.5 -28.5t-52.5 -10.5t-52 10.5t-42 29t-28.5 43t-10.5 52.5q0 27 10.5 51t28.5 42t42 28.5t51 10.5zM153 575q-20 0 -34 -14t-14 -34t14 -34.5t34 -14.5t34.5 14t14.5 34t-14.5 34.5
t-34.5 14.5zM535 667l-438 -694h-77l438 694h77zM400 257q28 0 52.5 -10.5t43 -28.5t29 -42.5t10.5 -52.5q0 -27 -10.5 -51.5t-28.5 -42.5t-42.5 -28.5t-52.5 -10.5t-52 10.5t-42 29t-28.5 43t-10.5 52.5q0 27 10.5 51t28.5 42t42 28.5t51 10.5zM401 172q-20 0 -34 -14
t-14 -34t14 -34.5t34 -14.5t34.5 14.5t14.5 34.5t-14.5 34t-34.5 14z" />
    <glyph glyph-name="ampersand" unicode="&#x26;" horiz-adv-x="695" 
d="M625 197l-85 -76l85 -121h-161l-27 43q-74 -56 -165 -56q-46 0 -83 13t-63.5 36.5t-41 56.5t-14.5 74q0 66 35 111t116 81q-15 20 -24.5 36t-15.5 30.5t-8.5 28.5t-2.5 30q0 35 13.5 64.5t38 50.5t59 32.5t75.5 11.5q39 0 71 -11.5t55.5 -32t36 -49t12.5 -63.5
q0 -66 -45 -112q-5 -6 -10.5 -10.5t-13.5 -10.5t-20 -14t-31 -20q-2 -2 -8 -6l67 -93l70 71zM338 408q21 14 33.5 23.5t19.5 18t9.5 16t2.5 17.5q0 21 -14.5 35t-36.5 14q-21 0 -35.5 -12t-14.5 -29q0 -8 1.5 -15t5.5 -16t11 -21.5t18 -30.5zM285 262q-38 -20 -54.5 -39
t-16.5 -45q0 -29 19.5 -48.5t50.5 -19.5q20 0 39 8t42 25z" />
    <glyph glyph-name="quotesingle" unicode="'" horiz-adv-x="273" 
d="M72 347l24 181q4 27 6.5 36t8.5 17q14 19 40 19q17 0 28.5 -11t11.5 -28q0 -10 -3.5 -20t-11.5 -26l-85 -168h-19z" />
    <glyph glyph-name="parenleft" unicode="(" horiz-adv-x="326" 
d="M286 590q-97 -132 -97 -320q0 -93 24.5 -173.5t72.5 -145.5l-112 -86q-66 78 -100 180.5t-34 224.5q0 123 34 225t100 180z" />
    <glyph glyph-name="parenright" unicode=")" horiz-adv-x="326" 
d="M40 -49q48 65 72.5 145.5t24.5 173.5q0 94 -24.5 174.5t-72.5 145.5l113 85q66 -78 99.5 -180t33.5 -225t-33.5 -225t-99.5 -180z" />
    <glyph glyph-name="asterisk" unicode="*" horiz-adv-x="451" 
d="M258 574l94 41l25 -81l-99 -24l69 -71l-73 -49l-50 89l-53 -89l-69 49l65 71l-94 20l25 85l92 -41l-7 96h84z" />
    <glyph glyph-name="plus" unicode="+" 
d="M27 268v107h177v177h107v-177h176v-107h-176v-176h-107v176h-177z" />
    <glyph glyph-name="comma" unicode="," horiz-adv-x="270" 
d="M237 127l-83 -227h-127l60 227h150z" />
    <glyph glyph-name="hyphen" unicode="-" horiz-adv-x="373" 
d="M323 327v-137h-273v137h273z" />
    <glyph glyph-name="period" unicode="." horiz-adv-x="280" 
d="M140 157q18 0 33 -6.5t26.5 -18t18 -26.5t6.5 -32q0 -35 -24.5 -59.5t-59.5 -24.5t-59 24.5t-24 59.5q0 34 24.5 58.5t58.5 24.5z" />
    <glyph glyph-name="slash" unicode="/" horiz-adv-x="360" 
d="M147 0h-107l173 667h107z" />
    <glyph glyph-name="zero" unicode="0" 
d="M257 657q129 0 181 -120q9 -21 15 -43t9.5 -47.5t5.5 -56t2 -68.5t-2 -68.5t-5.5 -56t-9.5 -47.5t-15 -43q-25 -59 -71.5 -89.5t-109.5 -30.5q-64 0 -110.5 30.5t-71.5 89.5q-9 21 -15 43t-10 48t-5.5 57.5t-1.5 71.5q0 72 7.5 121.5t24.5 88.5q53 120 182 120zM256 537
q-17 0 -28.5 -9.5t-18.5 -33t-9.5 -63.5t-2.5 -101q0 -74 3 -117t9 -62q13 -40 48 -40q18 0 29 9t18 33t9.5 65.5t2.5 105.5t-2.5 105.5t-9.5 65.5t-18.5 33t-29.5 9z" />
    <glyph glyph-name="one" unicode="1" 
d="M351 0h-151v469q-33 -22 -58 -33.5t-59 -20.5v122q28 9 58 22.5t56.5 29.5t48 33.5t33.5 34.5h72v-657z" />
    <glyph glyph-name="two" unicode="2" 
d="M434 130v-130h-400l20 53l191 309q26 42 36.5 69t10.5 50q0 25 -14.5 40.5t-37.5 15.5q-26 0 -41.5 -20.5t-15.5 -57.5v-16h-138q0 48 8 81.5t27 59.5q25 35 70.5 54t102.5 19q83 0 139 -45q55 -45 55 -122q0 -40 -13.5 -78t-44.5 -84l-133 -198h178z" />
    <glyph glyph-name="three" unicode="3" 
d="M458 643v-20l-154 -198q31 -2 53 -9.5t39 -21.5q27 -23 42.5 -65t15.5 -96q0 -115 -59 -180.5t-164 -65.5q-55 0 -92.5 15.5t-64.5 50.5q-39 49 -39 122v15l140 25q2 -110 63 -110q21 0 34 13q15 14 21 37t6 67q0 29 -3 45.5t-10 28.5q-8 13 -20 20t-26 7q-17 0 -29.5 -9
t-26.5 -31l-70 69l132 168h-180v123h392z" />
    <glyph glyph-name="four" unicode="4" 
d="M405 227h66v-120h-66v-107h-141v107h-237v110l188 430h190v-420zM264 524h-5l-128 -297h133v297z" />
    <glyph glyph-name="five" unicode="5" 
d="M426 516h-236v-110q23 18 45.5 26t51.5 8q40 0 73 -16.5t54 -46.5q17 -26 25.5 -61t8.5 -84q0 -66 -14.5 -110t-46.5 -76q-59 -59 -164 -59q-83 0 -130 42t-55 124l139 33v-6q0 -30 15.5 -50.5t39.5 -20.5q62 0 62 118q0 99 -62 99q-40 0 -51 -37h-107v354h352v-127z" />
    <glyph glyph-name="six" unicode="6" 
d="M399 652l-147 -225q25 7 48 7q77 0 121.5 -54t44.5 -148q0 -115 -59 -180t-165 -65q-47 0 -85 16t-65 45.5t-41.5 71.5t-14.5 94q0 30 3.5 56t13 53.5t25.5 60t42 76.5l112 192h167zM252 326q-63 0 -63 -106q0 -59 15 -85.5t47 -26.5t47 26t15 82q0 110 -61 110z" />
    <glyph glyph-name="seven" unicode="7" 
d="M481 643l-11 -46l-245 -597h-160l13 37l210 476h-239v130h432z" />
    <glyph glyph-name="eight" unicode="8" 
d="M141 359q-45 27 -64.5 56.5t-19.5 71.5q0 38 14.5 69t41 53.5t63.5 35t82 12.5t81.5 -12t63 -34t40.5 -53.5t14 -69.5q0 -43 -19.5 -72.5t-64.5 -56.5q52 -25 76 -62.5t24 -97.5q0 -49 -15 -88t-43.5 -66.5t-68.5 -42.5t-89 -15t-89 15t-68 42.5t-43.5 66.5t-15.5 87
q0 110 100 161zM257 543q-53 0 -53 -71q0 -72 53 -72t53 70q0 73 -53 73zM258 302q-17 0 -30.5 -8.5t-21.5 -22.5q-5 -11 -7.5 -25t-2.5 -40t2 -40t8 -25q8 -14 21.5 -22.5t29.5 -8.5q34 0 50 31q7 11 9 24.5t2 39.5q0 38 -5.5 55t-20.5 30q-15 12 -34 12z" />
    <glyph glyph-name="nine" unicode="9" 
d="M115 0l146 225q-25 -7 -48 -7q-77 0 -121.5 54t-44.5 148q0 115 59 180t165 65q47 0 85 -16t65 -45.5t41.5 -71.5t14.5 -94q0 -30 -3.5 -55.5t-13 -53.5t-26 -60.5t-41.5 -76.5l-112 -192h-166zM262 544q-32 0 -47 -26t-15 -82q0 -110 61 -110q63 0 63 106q0 59 -15 85.5
t-47 26.5z" />
    <glyph glyph-name="colon" unicode=":" horiz-adv-x="367" 
d="M183 157q18 0 33 -6.5t26.5 -18t18 -26.5t6.5 -32q0 -35 -24.5 -59.5t-59.5 -24.5t-59 24.5t-24 59.5q0 34 24.5 58.5t58.5 24.5zM183 490q18 0 33 -6.5t26.5 -18t18 -26.5t6.5 -32q0 -35 -24.5 -59.5t-59.5 -24.5t-59 24.5t-24 59.5q0 34 24.5 58.5t58.5 24.5z" />
    <glyph glyph-name="semicolon" unicode=";" horiz-adv-x="367" 
d="M204 490q18 0 33 -6.5t26.5 -18t18 -26.5t6.5 -32q0 -35 -24.5 -59.5t-59.5 -24.5t-59 24.5t-24 59.5q0 34 24.5 58.5t58.5 24.5zM277 127l-83 -227h-127l60 227h150z" />
    <glyph glyph-name="less" unicode="&#x3c;" horiz-adv-x="500" 
d="M466 473l-268 -140l268 -139v-156l-433 230v131l433 230v-156z" />
    <glyph glyph-name="equal" unicode="=" 
d="M487 455v-107h-460v107h460zM487 295v-107h-460v107h460z" />
    <glyph glyph-name="greater" unicode="&#x3e;" horiz-adv-x="500" 
d="M467 399v-131l-433 -230v156l268 139l-268 140v156z" />
    <glyph glyph-name="question" unicode="?" horiz-adv-x="510" 
d="M63 465q0 30 1.5 51.5t5 37t8.5 27.5t13 24q24 35 68 55t100 20q42 0 76.5 -13t59.5 -36.5t38.5 -56t13.5 -72.5q0 -39 -14 -75t-45 -76l-41 -54q-27 -34 -36 -51.5t-9 -35.5h-133q0 27 5.5 44.5t21.5 39.5l63 91q12 17 19 30t11.5 24.5t6 23.5t1.5 27q0 34 -13.5 53
t-37.5 19t-37.5 -20t-13.5 -56v-8t1 -13h-133zM236 157q18 0 33 -6.5t26.5 -18t18 -26.5t6.5 -32q0 -35 -24.5 -59.5t-59.5 -24.5t-59 24.5t-24 59.5q0 34 24.5 58.5t58.5 24.5z" />
    <glyph glyph-name="at" unicode="@" horiz-adv-x="817" 
d="M529 -145q-43 -10 -67 -13.5t-49 -3.5q-41 0 -81.5 11t-78 32t-71 51t-58.5 67q-36 52 -54.5 120.5t-18.5 149.5q0 97 28.5 179.5t82.5 139.5q53 57 120 87t142 30t140.5 -29.5t113.5 -81t75.5 -121t27.5 -150.5q0 -39 -7.5 -75.5t-21 -68t-32 -55.5t-41.5 -39
q-20 -13 -49 -20t-60 -7q-65 0 -91 35q-39 -36 -88 -36q-34 0 -63 15.5t-50 42.5t-32.5 65t-11.5 83q0 46 12.5 85.5t34 68t51.5 44.5t65 16q50 0 89 -40v27h104v-253q0 -23 2.5 -28t12.5 -5q15 0 28 11t23 30t15.5 44.5t5.5 54.5q0 57 -19 105.5t-52.5 84t-79.5 55.5
t-99 20q-59 0 -108.5 -23t-85 -64.5t-55.5 -99t-20 -125.5q0 -69 19 -126t53 -98t81 -64t103 -23q14 0 26.5 1t25.5 3.5t28 7l35 10.5v-127zM414 366q-31 0 -50.5 -28.5t-19.5 -73.5q0 -43 20 -71.5t50 -28.5q31 0 52 30.5t21 76.5q0 42 -20.5 68.5t-52.5 26.5z" />
    <glyph glyph-name="A" unicode="A" horiz-adv-x="609" 
d="M593 0h-169l-23 105h-198l-25 -105h-161l195 670h192zM306 519l-72 -294h139z" />
    <glyph glyph-name="B" unicode="B" horiz-adv-x="651" 
d="M286 667q46 0 78 -1.5t55.5 -5t42 -9.5t36.5 -15q77 -39 77 -132q0 -51 -27.5 -85.5t-86.5 -56.5q65 -17 98 -58t33 -103q0 -57 -27.5 -103t-76.5 -69q-18 -9 -35.5 -14.5t-38.5 -8.5t-47.5 -4.5t-62.5 -1.5h-237v667h219zM298 407q64 0 92 17t28 55t-28 54.5t-92 16.5
h-77v-143h77zM221 117h77q38 0 60 5t39 16q31 22 31 68q0 88 -117 88h-90v-177z" />
    <glyph glyph-name="C" unicode="C" horiz-adv-x="565" 
d="M536 197q-20 -103 -81 -156.5t-161 -53.5q-120 0 -183 84q-34 46 -49 105.5t-15 146.5q0 183 63 270t194 87q102 0 158 -50t74 -158l-151 -33q-7 63 -25 90.5t-54 27.5q-50 0 -72.5 -54t-22.5 -172q0 -109 22.5 -161.5t69.5 -52.5q35 0 54.5 30t27.5 101z" />
    <glyph glyph-name="D" unicode="D" horiz-adv-x="652" 
d="M280 667q45 0 78.5 -2.5t59 -9.5t45.5 -18t39 -28q94 -84 94 -262q0 -173 -84 -269q-37 -42 -85.5 -60t-125.5 -18h-234v667h213zM247 120q98 0 141.5 50.5t43.5 164.5q0 113 -39 164t-126 51h-43v-430h23z" />
    <glyph glyph-name="E" unicode="E" horiz-adv-x="564" 
d="M511 540h-287v-137h287v-120h-287v-153h287v-130h-444v667h444v-127z" />
    <glyph glyph-name="F" unicode="F" horiz-adv-x="554" 
d="M504 540h-280v-140h280v-123h-280v-277h-157v667h437v-127z" />
    <glyph glyph-name="G" unicode="G" horiz-adv-x="655" 
d="M599 392v-62q0 -79 -13.5 -134.5t-44.5 -100.5q-36 -53 -92.5 -80.5t-128.5 -27.5q-128 0 -195.5 87t-67.5 252q0 180 68 267t210 87q99 0 158.5 -44t88.5 -138l-154 -38q-8 46 -33.5 71t-62.5 25q-57 0 -84 -57.5t-27 -180.5q0 -208 110 -208q47 0 74 42t29 117h-122
v123h287z" />
    <glyph glyph-name="H" unicode="H" horiz-adv-x="655" 
d="M431 417v250h157v-667h-157v294h-207v-294h-157v667h157v-250h207z" />
    <glyph glyph-name="I" unicode="I" horiz-adv-x="291" 
d="M224 667v-667h-157v667h157z" />
    <glyph glyph-name="J" unicode="J" horiz-adv-x="416" 
d="M350 199q0 -56 -13.5 -92.5t-45.5 -67.5q-55 -52 -140 -52q-86 0 -144 52l64 132h15q12 -47 56 -47q26 0 38.5 19.5t12.5 61.5v462h157v-468z" />
    <glyph glyph-name="K" unicode="K" horiz-adv-x="648" 
d="M218 380l215 287h177l-220 -296l242 -371h-188l-226 342v-342h-151v667h151v-287z" />
    <glyph glyph-name="L" unicode="L" horiz-adv-x="564" 
d="M224 130h283v-130h-440v667h157v-537z" />
    <glyph glyph-name="M" unicode="M" horiz-adv-x="744" 
d="M678 0h-140l7 477l-113 -379h-122l-113 386l7 -484h-137v667h181l124 -397l123 397h183v-667z" />
    <glyph glyph-name="N" unicode="N" horiz-adv-x="649" 
d="M582 0h-154l-224 458l3 -458h-140v667h154l224 -453l-3 453h140v-667z" />
    <glyph glyph-name="O" unicode="O" horiz-adv-x="658" 
d="M333 680q72 0 118 -17.5t81 -58.5q19 -23 33 -49.5t22.5 -59.5t12.5 -73t4 -90q0 -49 -4 -88.5t-13 -71.5t-22.5 -58.5t-32.5 -49.5q-35 -42 -84.5 -59.5t-127.5 -17.5q-68 0 -115.5 18.5t-79.5 57.5q-20 24 -33.5 50.5t-22 59t-12.5 72t-4 89.5q0 49 4 89t12.5 72
t22 58.5t33.5 49.5q35 40 84 58.5t124 18.5zM329 557q-57 0 -84.5 -53.5t-27.5 -166.5q0 -118 26.5 -172.5t85.5 -54.5q57 0 84 54t27 170q0 115 -27 169t-84 54z" />
    <glyph glyph-name="P" unicode="P" horiz-adv-x="601" 
d="M281 667q40 0 70.5 -2.5t54.5 -7.5t43.5 -14t37.5 -22q37 -27 57 -70.5t20 -98.5q0 -118 -90 -182q-39 -28 -86 -40.5t-113 -12.5h-51v-217h-157v667h214zM224 340h39q41 0 60.5 4t37.5 16t28.5 34t10.5 48t-10.5 48t-28.5 34t-37.5 16t-60.5 4h-39v-204z" />
    <glyph glyph-name="Q" unicode="Q" horiz-adv-x="658" 
d="M606 -40l-124 -80l-72 117q-23 -5 -44 -7.5t-48 -2.5q-66 0 -113 18.5t-80 57.5q-20 23 -33.5 49.5t-22 59t-12.5 72t-4 89.5t4 90t12.5 72t22 58.5t32.5 49.5q34 42 82 59.5t126 17.5q74 0 121 -17.5t80 -58.5q38 -47 54.5 -109t16.5 -158q0 -49 -4 -86.5t-12.5 -68
t-23 -56.5t-35.5 -51zM329 557q-57 0 -84.5 -53.5t-27.5 -166.5q0 -118 26.5 -172.5t85.5 -54.5q57 0 84 54t27 170q0 115 -27 169t-84 54z" />
    <glyph glyph-name="R" unicode="R" horiz-adv-x="647" 
d="M342 667q34 0 60.5 -2.5t47.5 -8t38 -14t33 -21.5q31 -24 47 -61.5t16 -84.5q0 -154 -171 -187l191 -288h-196l-184 308v-308h-157v667h275zM280 387q40 0 59.5 2t37.5 10q45 16 45 68q0 51 -45 68q-18 8 -38 10t-59 2h-56v-160h56z" />
    <glyph glyph-name="S" unicode="S" horiz-adv-x="561" 
d="M198 201q6 -91 81 -91q32 0 53 18.5t21 47.5q0 18 -8.5 31.5t-25.5 25.5q-10 7 -17 11.5t-19.5 11t-34 17t-60.5 29.5q-36 18 -61 36t-40 39t-21.5 46t-6.5 57q0 93 63.5 146.5t173.5 53.5q55 0 97 -14.5t68 -43.5q15 -16 25 -36.5t18 -52.5l-146 -51q-6 39 -24.5 57
t-53.5 18q-28 0 -45.5 -15.5t-17.5 -41.5t20 -46t66 -40q29 -12 48.5 -20.5t33 -15.5t23.5 -13t22 -14q84 -57 84 -154q0 -45 -19 -85.5t-54 -70.5q-35 -29 -76 -41.5t-101 -12.5q-118 0 -175 63q-17 17 -26 39t-16 58z" />
    <glyph glyph-name="T" unicode="T" horiz-adv-x="564" 
d="M534 540h-174v-540h-157v540h-173v127h504v-127z" />
    <glyph glyph-name="U" unicode="U" horiz-adv-x="647" 
d="M580 667v-412q0 -40 -3.5 -70.5t-12 -55t-22.5 -44.5t-34 -38q-67 -60 -185 -60t-184 57q-20 17 -34 36t-22.5 42.5t-12 52.5t-3.5 67v425h157v-417q0 -66 25.5 -101t73.5 -35q100 0 100 150v403h157z" />
    <glyph glyph-name="V" unicode="V" horiz-adv-x="607" 
d="M391 0h-175l-189 667h165l90 -364q8 -35 13 -64.5t10 -69.5l115 498h161z" />
    <glyph glyph-name="W" unicode="W" horiz-adv-x="831" 
d="M671 0h-168l-86 523l-91 -523h-167l-139 667h157l80 -503l77 503h169l73 -516l86 516h149z" />
    <glyph glyph-name="X" unicode="X" horiz-adv-x="656" 
d="M440 352l190 -352h-181l-118 272l-128 -272h-176l197 352l-170 315h173l104 -249l109 249h172z" />
    <glyph glyph-name="Y" unicode="Y" horiz-adv-x="609" 
d="M197 667l89 -197q9 -20 14.5 -38.5t11.5 -49.5l112 285h165l-204 -401v-266h-157v266l-208 401h177z" />
    <glyph glyph-name="Z" unicode="Z" horiz-adv-x="566" 
d="M526 635l-282 -505h273v-130h-497l17 64l265 476h-257v127h481v-32z" />
    <glyph glyph-name="bracketleft" unicode="[" horiz-adv-x="330" 
d="M287 667v-113h-84v-568h84v-113h-227v794h227z" />
    <glyph glyph-name="backslash" unicode="\" horiz-adv-x="360" 
d="M40 667h107l173 -667h-107z" />
    <glyph glyph-name="bracketright" unicode="]" horiz-adv-x="330" 
d="M43 -127v113h83v568h-83v113h226v-794h-226z" />
    <glyph glyph-name="asciicircum" unicode="^" horiz-adv-x="500" 
d="M14 348l150 323h173l150 -323h-138l-99 217l-98 -217h-138z" />
    <glyph glyph-name="underscore" unicode="_" horiz-adv-x="500" 
d="M500 -55v-93h-500v93h500z" />
    <glyph glyph-name="grave" unicode="`" horiz-adv-x="500" 
d="M311 557h-98l-120 127v13h153z" />
    <glyph glyph-name="a" unicode="a" horiz-adv-x="555" 
d="M489 0h-143v93q-29 -58 -59.5 -81.5t-78.5 -23.5q-75 0 -117.5 66.5t-42.5 184.5q0 59 12 107.5t33.5 83t51.5 53.5t67 19q44 0 81.5 -29t55.5 -77v94h140v-490zM270 390q-35 0 -55 -37q-8 -17 -11 -40t-3 -69q0 -25 1 -42.5t3 -31t5.5 -23t9.5 -18.5q18 -30 51 -30
q32 0 52 31q20 30 20 113q0 36 -2.5 59t-9.5 41q-8 22 -24.5 34.5t-36.5 12.5z" />
    <glyph glyph-name="b" unicode="b" horiz-adv-x="561" 
d="M210 667v-272q29 55 63.5 81t79.5 26q43 0 78.5 -26.5t53.5 -71.5q12 -31 17.5 -66t5.5 -85q0 -61 -9.5 -104.5t-29.5 -80.5q-22 -38 -54.5 -59t-71.5 -21q-45 0 -77 24.5t-59 78.5v-91h-140v667h143zM285 390q-72 0 -72 -144q0 -145 72 -145q70 0 70 143q0 75 -17 110.5
t-53 35.5z" />
    <glyph glyph-name="c" unicode="c" horiz-adv-x="475" 
d="M317 308q-6 79 -55 79q-32 0 -46.5 -32.5t-14.5 -101.5q0 -81 14 -115t46 -34q23 0 35.5 16.5t20.5 60.5l128 -46q-17 -75 -64 -111.5t-128 -36.5q-100 0 -153 66t-53 191q0 127 54 193t157 66q53 0 93.5 -17t62.5 -49q11 -16 17.5 -37t13.5 -57z" />
    <glyph glyph-name="d" unicode="d" horiz-adv-x="561" 
d="M354 0v95q-51 -107 -141 -107q-44 0 -80.5 26.5t-55.5 71.5q-13 31 -18.5 66t-5.5 85q0 62 9.5 105t29.5 80q22 38 54.5 59t71.5 21q43 0 74 -24t59 -79v268h143v-667h-140zM276 389q-70 0 -70 -143q0 -146 72 -146q36 0 53 35t17 109q0 85 -21 115t-51 30z" />
    <glyph glyph-name="e" unicode="e" 
d="M194 213q1 -63 18 -91.5t53 -28.5q51 0 61 66l135 -27q-9 -70 -60.5 -107.5t-139.5 -37.5q-54 0 -90.5 13t-62.5 42q-32 35 -46.5 82t-14.5 119q0 67 11.5 112t37.5 77q27 35 70 53t96 18q65 0 112 -26t69 -74q7 -15 11.5 -30t7.5 -32.5t4 -38.5t1 -49v-40h-273zM327 298
q-2 101 -67 101q-66 0 -66 -101h133z" />
    <glyph glyph-name="f" unicode="f" horiz-adv-x="370" 
d="M340 552q-21 7 -34 7q-50 0 -56 -44q-1 -6 -1 -11v-27h91v-113h-91v-364h-143v364h-76v113h76l1 30q1 29 3.5 50.5t8.5 37.5t15 27.5t23 22.5q46 34 120 34q16 0 29.5 -1.5t33.5 -5.5v-120z" />
    <glyph glyph-name="g" unicode="g" horiz-adv-x="553" 
d="M486 75q0 -34 -2.5 -59t-9 -44.5t-16.5 -34t-25 -27.5q-31 -26 -73.5 -38t-104.5 -12q-59 0 -103 9.5t-85 31.5l95 85q19 -14 39.5 -20t49.5 -6q27 0 45 6t29 20t15.5 37.5t4.5 58.5v39q-47 -101 -129 -101q-37 0 -68 17.5t-53.5 49t-35.5 74.5t-13 94q0 52 12.5 97
t35 78.5t52.5 52.5t65 19q84 0 134 -106v94h141v-415zM270 386q-34 0 -52 -31t-18 -91q0 -65 18 -99t52 -34q69 0 69 132q0 123 -69 123z" />
    <glyph glyph-name="h" unicode="h" horiz-adv-x="557" 
d="M210 396q31 55 67.5 79.5t87.5 24.5q32 0 60 -13.5t45 -36.5q9 -12 14.5 -23t8 -26t3.5 -37t1 -56v-308h-143v273q0 43 -4.5 62t-17.5 32q-17 15 -41 15q-21 0 -38.5 -10.5t-28.5 -30.5q-14 -25 -14 -74v-267h-143v667h143v-271z" />
    <glyph glyph-name="i" unicode="i" horiz-adv-x="277" 
d="M210 0h-143v490h143v-490zM138 697q33 0 56 -23t23 -55q0 -33 -23 -56t-56 -23q-32 0 -55 23t-23 56q0 32 23 55t55 23z" />
    <glyph glyph-name="j" unicode="j" horiz-adv-x="311" 
d="M244 48q0 -51 -8.5 -80.5t-29.5 -53.5q-44 -49 -123 -49q-17 0 -31.5 1.5t-34.5 6.5v119q13 -4 21 -5.5t17 -1.5q26 0 36 17t10 62v426h143v-442zM172 697q33 0 56 -23t23 -55q0 -33 -23 -56t-56 -23q-32 0 -55 23t-23 56q0 32 23 55t55 23z" />
    <glyph glyph-name="k" unicode="k" horiz-adv-x="564" 
d="M210 0h-143v667h143v-667zM523 490l-147 -233l168 -257h-185l-147 253l147 237h164z" />
    <glyph glyph-name="l" unicode="l" horiz-adv-x="277" 
d="M210 0h-143v667h143v-667z" />
    <glyph glyph-name="m" unicode="m" horiz-adv-x="843" 
d="M207 393q56 107 157 107q99 0 130 -98q30 51 66 74.5t85 23.5q33 0 61.5 -12.5t48.5 -34.5q15 -18 22 -41.5t7 -58.5v-353h-143v288q0 23 -1 33.5t-4 20.5q-7 18 -24.5 29.5t-39.5 11.5q-40 0 -59 -32q-10 -14 -13 -30t-3 -47v-274h-143v298q0 22 -2.5 35t-10.5 23
q-8 13 -22.5 20t-30.5 7q-38 0 -60 -33q-11 -16 -14.5 -33t-3.5 -49v-268h-143v490h140v-97z" />
    <glyph glyph-name="n" unicode="n" horiz-adv-x="557" 
d="M207 490v-93q35 54 72 78.5t86 24.5q31 0 58.5 -12t45.5 -33q15 -18 21.5 -40t6.5 -54v-361h-143v300q0 23 -2.5 35t-9.5 22q-18 24 -52 24q-80 0 -80 -125v-256h-143v490h140z" />
    <glyph glyph-name="o" unicode="o" horiz-adv-x="560" 
d="M280 503q116 0 175 -66t59 -196q0 -123 -60.5 -188.5t-173.5 -65.5q-114 0 -173.5 66t-59.5 192t59.5 192t173.5 66zM280 388q-42 0 -61 -34t-19 -107q0 -74 19.5 -108t61.5 -34t61 34t19 106q0 75 -19.5 109t-61.5 34z" />
    <glyph glyph-name="p" unicode="p" horiz-adv-x="561" 
d="M207 490v-95q54 107 146 107q43 0 78.5 -26.5t53.5 -71.5q12 -31 17.5 -66t5.5 -84q0 -61 -9.5 -104t-29.5 -79q-22 -38 -54.5 -58t-71.5 -20q-43 0 -74 22.5t-59 75.5v-224h-143v623h140zM285 393q-72 0 -72 -144q0 -72 17.5 -106.5t54.5 -34.5q35 0 52.5 35t17.5 103
q0 76 -17 111.5t-53 35.5z" />
    <glyph glyph-name="q" unicode="q" horiz-adv-x="561" 
d="M351 -133v228q-35 -57 -65.5 -79.5t-71.5 -22.5q-42 0 -78 25.5t-57 70.5q-14 31 -20 64t-6 82q0 63 9 106.5t30 80.5q22 38 54.5 59t71.5 21q45 0 77 -24.5t59 -78.5v91h140v-623h-143zM276 392q-70 0 -70 -143q0 -142 73 -142q69 0 69 140q0 145 -72 145z" />
    <glyph glyph-name="r" unicode="r" horiz-adv-x="376" 
d="M207 490v-110q23 61 59 89.5t90 30.5v-154q-8 1 -14 1h-13q-30 0 -51 -7.5t-37 -23.5q-9 -10 -15 -19.5t-9.5 -22t-5 -29t-1.5 -40.5v-205h-143v490h140z" />
    <glyph glyph-name="s" unicode="s" horiz-adv-x="472" 
d="M296 343q-7 29 -21 42.5t-40 13.5q-21 0 -34.5 -10.5t-13.5 -27.5q0 -22 20 -34q4 -3 8.5 -4.5t28.5 -7.5l78 -24q57 -17 80.5 -46.5t23.5 -82.5q0 -40 -14 -72t-40 -55t-62.5 -35.5t-81.5 -12.5q-38 0 -66.5 6t-50 20t-37 36t-27.5 54l125 51q12 -56 61 -56q24 0 40 12
t16 30q0 13 -8 23q-3 3 -5.5 5t-7.5 4.5t-13.5 5t-23.5 7.5l-70 20q-50 15 -77.5 51.5t-27.5 87.5q0 36 13.5 65.5t37.5 50t58.5 32t76.5 11.5q145 0 171 -103z" />
    <glyph glyph-name="t" unicode="t" horiz-adv-x="365" 
d="M339 364h-90v-208q0 -28 9 -38t32 -10q5 0 13.5 0.5t16.5 1.5l19 2v-112q-29 -7 -52.5 -9.5t-49.5 -2.5q-87 0 -115 43q-6 8 -10 21t-6 25v55v232h-79v113h79v130h143v-130h90v-113z" />
    <glyph glyph-name="u" unicode="u" horiz-adv-x="550" 
d="M490 490v-290q0 -63 -17 -103.5t-55 -69.5q-29 -21 -62 -30.5t-81 -9.5t-81 9.5t-62 30.5q-38 29 -55 69.5t-17 103.5v290h143v-250q0 -67 17 -97.5t55 -30.5t55 30.5t17 97.5v250h143z" />
    <glyph glyph-name="v" unicode="v" horiz-adv-x="511" 
d="M337 0h-155l-162 490h160l64 -238q6 -22 10 -48.5t9 -66.5l75 353h153z" />
    <glyph glyph-name="w" unicode="w" horiz-adv-x="743" 
d="M587 0h-148l-68 377l-72 -377h-148l-131 490h153l63 -334l59 334h159l56 -334l66 334h147z" />
    <glyph glyph-name="x" unicode="x" horiz-adv-x="564" 
d="M374 255l160 -255h-176l-35 66q-13 25 -21.5 48t-18.5 61l-84 -175h-169l161 255l-154 235h178l39 -76q8 -17 16 -40.5t13 -46.5l75 163h169z" />
    <glyph glyph-name="y" unicode="y" horiz-adv-x="518" 
d="M282 -133h-149l61 169l-174 454h164l81 -285l84 285h149z" />
    <glyph glyph-name="z" unicode="z" horiz-adv-x="467" 
d="M420 463l-187 -344h181v-119h-385l16 56l174 319h-177v115h378v-27z" />
    <glyph glyph-name="braceleft" unicode="{" horiz-adv-x="330" 
d="M203 390q0 -24 -3 -42t-9.5 -32t-17.5 -25t-27 -21q32 -20 44.5 -46t12.5 -74v-80q0 -25 3.5 -41t12.5 -25t25.5 -13t42.5 -4v-113q-14 -1 -22 -1h-24q-38 0 -62.5 2t-42 6.5t-29 13t-21.5 21.5q-26 33 -26 103v109q0 42 -12.5 62.5t-43.5 28.5v109q30 8 43 27.5t13 57.5
v116q0 71 32 103q10 11 21.5 18t28.5 11t41 5.5t60 1.5h22t22 -1v-113q-26 -1 -42.5 -4.5t-25.5 -12.5t-12.5 -24.5t-3.5 -39.5v-83z" />
    <glyph glyph-name="bar" unicode="|" horiz-adv-x="500" 
d="M328 667v-834h-157v834h157z" />
    <glyph glyph-name="braceright" unicode="}" horiz-adv-x="330" 
d="M127 150q0 48 12.5 74t44.5 46q-16 10 -27 21t-17.5 25t-9.5 32t-3 42v83q0 24 -3.5 39.5t-12.5 24.5t-25.5 12.5t-42.5 4.5v113q14 1 22 1h22q37 0 62.5 -2t42.5 -6.5t29 -12.5t23 -21q26 -30 26 -97v-116q0 -38 13 -57.5t43 -27.5v-109q-31 -8 -43.5 -28.5t-12.5 -62.5
v-109q0 -39 -7 -65t-24 -44q-11 -12 -22 -19t-27.5 -11t-40.5 -5.5t-60 -1.5h-24t-22 1v113q26 0 42.5 4t25.5 13t12.5 25t3.5 41v80z" />
    <glyph glyph-name="asciitilde" unicode="~" horiz-adv-x="667" 
d="M93 613q29 72 65 105t84 33q12 0 21.5 -1.5t24 -6t37 -13.5t58.5 -25q28 -12 49 -12q20 0 35 13.5t34 47.5l76 -63q-14 -32 -24 -50.5t-22 -34.5q-21 -26 -48 -40.5t-56 -14.5q-9 0 -16.5 1t-20 5t-35 13l-62.5 25q-19 8 -31.5 11.5t-23.5 3.5q-20 0 -35 -13t-34 -48z
" />
    <glyph glyph-name="uni00A0" unicode="&#xa0;" horiz-adv-x="291" 
 />
    <glyph glyph-name="exclamdown" unicode="&#xa1;" horiz-adv-x="370" 
d="M108 323h120l15 -456h-150zM169 544q35 0 59 -24.5t24 -59.5q0 -34 -24.5 -58.5t-58.5 -24.5q-35 0 -59.5 24.5t-24.5 59.5q0 17 6.5 32t18 26.5t26.5 18t33 6.5z" />
    <glyph glyph-name="cent" unicode="&#xa2;" 
d="M290 112q53 0 92 51l86 -100q-44 -39 -85 -56t-93 -17h-11.5t-14.5 1l-18 -81h-53l19 89q-78 21 -122.5 79.5t-44.5 142.5q0 53 18 97.5t50.5 76.5t78 49.5t99.5 17.5h9.5t12.5 -1l15 69h53l-17 -78q29 -9 52.5 -23t51.5 -39l-91 -99q-9 12 -17.5 19.5t-22.5 14.5z
M285 334q-43 -6 -69 -36t-26 -75q0 -60 50 -95z" />
    <glyph glyph-name="sterling" unicode="&#xa3;" 
d="M400 296h-103q11 -26 11 -46t-8 -39t-25 -45q18 -3 51 -20l29 -14.5t18.5 -8t12.5 -3.5t11 -1q19 0 34.5 12.5t25.5 34.5h14v-143q-45 -33 -91 -33q-21 0 -47 10t-69 35q-29 17 -42 22t-27 5q-40 0 -45 -62h-115q-1 81 27 121.5t97 58.5q9 17 13 29t4 26q0 7 -1 12.5
t-3.5 12t-7.5 15t-14 21.5h-119v62h76q-46 45 -46 117q0 40 15.5 73.5t43 57.5t66 37.5t85.5 13.5q56 0 99 -21t68 -60q14 -22 21 -50t6 -69h-136q0 44 -13.5 62.5t-45.5 18.5q-26 0 -42 -16.5t-16 -45.5q0 -19 6.5 -34t23.5 -40l33 -44h125v-62z" />
    <glyph glyph-name="currency" unicode="&#xa4;" 
d="M47 468l75 75l41 -41q25 14 45.5 19t46.5 5t48 -5.5t47 -18.5l41 41l76 -75l-42 -42q13 -23 18.5 -45t5.5 -48q0 -25 -5.5 -47t-18.5 -46l42 -41l-76 -75l-41 41q-23 -12 -46 -18t-49 -6t-46.5 5t-45.5 18l-41 -40l-75 75l42 42q-13 25 -19 47t-6 45q0 46 25 93zM256 433
q-20 0 -38 -8t-31.5 -21.5t-21.5 -31.5t-8 -38q0 -21 7.5 -39.5t21 -32t31.5 -21.5t39 -8t39.5 8t32 21.5t21.5 31.5t8 39t-8 39t-21.5 31.5t-32 21.5t-39.5 8z" />
    <glyph glyph-name="yen" unicode="&#xa5;" horiz-adv-x="597" 
d="M552 425v-62h-124l-51 -101v-4h168v-62h-168v-196h-152v196h-168v62h168v4l-52 101h-123v62h91l-114 218h173l112 -252l98 252h161l-111 -218h92z" />
    <glyph glyph-name="brokenbar" unicode="&#xa6;" horiz-adv-x="500" 
d="M328 667v-354h-157v354h157zM328 153v-320h-157v320h157z" />
    <glyph glyph-name="section" unicode="&#xa7;" horiz-adv-x="511" 
d="M316 516q-11 53 -61 53q-21 0 -34 -10.5t-13 -28.5q0 -15 7.5 -22.5t37.5 -21.5l119 -55q57 -26 83 -63.5t26 -94.5q0 -48 -21.5 -83t-61.5 -52q29 -25 40 -47t11 -54q0 -38 -15 -69t-41.5 -53.5t-63.5 -35t-81 -12.5q-53 0 -93.5 16.5t-64.5 47.5q-14 17 -20 35t-10 48
l130 29q2 -29 18.5 -45.5t45.5 -16.5q25 0 39.5 12.5t14.5 33.5q0 29 -33 46l-160 80q-45 23 -65 56t-20 83q0 25 4.5 44.5t15 35.5t27.5 30t43 29q-24 19 -35 42t-11 56q0 34 13.5 61.5t38 47.5t58.5 31t75 11q143 0 185 -127zM246 230q34 -17 56 -17q20 0 33.5 13.5
t13.5 32.5q0 32 -53 61l-31 17q-32 17 -57 17q-19 0 -33 -13.5t-14 -32.5q0 -17 12.5 -31.5t41.5 -29.5z" />
    <glyph glyph-name="dieresis" unicode="&#xa8;" horiz-adv-x="500" 
d="M325 693q54 0 54 -73q0 -70 -55 -70t-55 71q0 72 56 72zM178 693q54 0 54 -73q0 -70 -55 -70t-55 71q0 72 56 72z" />
    <glyph glyph-name="copyright" unicode="&#xa9;" horiz-adv-x="747" 
d="M531 255q-26 -130 -157 -130q-78 0 -118.5 51t-40.5 151q0 109 40.5 161.5t125.5 52.5q66 0 101.5 -30.5t48.5 -97.5l-102 -22q-5 40 -15 55.5t-32 15.5q-30 0 -43.5 -31t-13.5 -100q0 -122 55 -122q22 0 33 17.5t16 60.5zM370 674q72 0 134.5 -26.5t109 -72.5t73 -108
t26.5 -133t-26.5 -133t-73 -108.5t-109 -73t-133.5 -26.5q-70 0 -130.5 25.5t-107.5 74.5q-48 49 -74 113t-26 131q0 30 7 62.5t20 63.5t31.5 59.5t41.5 51.5q47 49 107.5 74.5t129.5 25.5zM371 604q-112 0 -189 -79q-36 -38 -57.5 -89t-21.5 -99q0 -57 21 -107t57.5 -87
t85 -58.5t104.5 -21.5q57 0 106.5 21t86 58t58 86t21.5 106q0 56 -21.5 105.5t-58 86t-86 57.5t-106.5 21z" />
    <glyph glyph-name="ordfeminine" unicode="&#xaa;" horiz-adv-x="350" 
d="M311 267h-97v45q-17 -28 -36 -40t-47 -12q-50 0 -77.5 40t-27.5 111q0 72 29.5 115t77.5 43q52 0 83 -51v44h95v-295zM169 496q-22 0 -31 -18.5t-9 -63.5t9 -63.5t31 -18.5q23 0 33 19.5t10 61.5q0 44 -10 63.5t-33 19.5z" />
    <glyph glyph-name="guillemotleft" unicode="&#xab;" horiz-adv-x="515" 
d="M319 110l-49 144l49 143h136l-53 -143l53 -144h-136zM112 110l-49 144l49 143h136l-52 -143l52 -144h-136z" />
    <glyph glyph-name="logicalnot" unicode="&#xac;" horiz-adv-x="500" 
d="M314 155h-281v137h433v-292h-152v155z" />
    <glyph glyph-name="uni00AD" unicode="&#xad;" horiz-adv-x="373" 
d="M323 327v-137h-273v137h273z" />
    <glyph glyph-name="registered" unicode="&#xae;" horiz-adv-x="747" 
d="M376 533q44 0 69.5 -6t45.5 -22q20 -14 30.5 -37t10.5 -52q0 -93 -105 -112l107 -171h-118l-84 153v-153h-106v400h150zM337 368q49 0 67.5 9.5t18.5 34.5t-18.5 34.5t-67.5 9.5h-5v-88h5zM370 674q72 0 134.5 -26.5t109 -72.5t73 -108t26.5 -133t-26.5 -133t-73 -108.5
t-109 -73t-133.5 -26.5q-70 0 -130.5 25.5t-107.5 74.5q-48 49 -74 113t-26 131q0 30 7 62.5t20 63.5t31.5 59.5t41.5 51.5q47 49 107.5 74.5t129.5 25.5zM371 604q-112 0 -189 -79q-36 -38 -57.5 -89t-21.5 -99q0 -57 21 -107t57.5 -87t85 -58.5t104.5 -21.5q57 0 106.5 21
t86 58t58 86t21.5 106q0 56 -21.5 105.5t-58 86t-86 57.5t-106.5 21z" />
    <glyph glyph-name="macron" unicode="&#xaf;" horiz-adv-x="500" 
d="M376 643v-67h-253v67h253z" />
    <glyph glyph-name="degree" unicode="&#xb0;" 
d="M255 657q33 0 61.5 -12t49.5 -33t33.5 -49.5t12.5 -60.5q0 -33 -12.5 -61.5t-33.5 -49.5t-49.5 -33t-60.5 -12t-60.5 12.5t-49.5 33.5t-33 49.5t-12 61.5q0 31 12.5 59t33.5 49t49 33.5t59 12.5zM256 568q-27 0 -46.5 -19.5t-19.5 -46.5q0 -28 19 -47.5t47 -19.5
t47.5 19.5t19.5 47.5q0 27 -19.5 46.5t-47.5 19.5z" />
    <glyph glyph-name="plusminus" unicode="&#xb1;" 
d="M27 288v107h177v157h107v-157h176v-107h-176v-156h-107v156h-177zM487 107v-107h-460v107h460z" />
    <glyph glyph-name="uni00B2" unicode="&#xb2;" horiz-adv-x="333" 
d="M281 341v-83h-260l15 36l120 182q28 44 28 67q0 14 -8 22t-21 8q-15 0 -23.5 -11t-8.5 -31v-13h-94q0 24 2 35.5t7 26.5q11 34 44.5 52.5t81.5 18.5q57 0 91 -28t34 -74q0 -24 -8.5 -47t-28.5 -50l-80 -111h109z" />
    <glyph glyph-name="uni00B3" unicode="&#xb3;" horiz-adv-x="333" 
d="M297 643v-16l-94 -113q21 -3 32.5 -7t20.5 -11q19 -15 28.5 -40.5t9.5 -57.5q0 -70 -38.5 -109.5t-105.5 -39.5q-60 0 -93 31t-33 88v8l94 15q1 -35 9.5 -50.5t27.5 -15.5q18 0 26.5 15.5t8.5 50.5q0 30 -8 43.5t-26 13.5q-11 0 -17.5 -5t-16.5 -21l-50 46l81 96h-110v79
h254z" />
    <glyph glyph-name="acute" unicode="&#xb4;" horiz-adv-x="500" 
d="M407 697v-13l-120 -127h-98l65 140h153z" />
    <glyph glyph-name="mu" unicode="&#xb5;" horiz-adv-x="537" 
d="M203 490v-250q0 -67 17 -97.5t55 -30.5t55 30.5t17 97.5v250h143v-290q0 -63 -17 -103.5t-55 -69.5q-29 -21 -61.5 -30.5t-80.5 -9.5q-26 0 -44 2t-40 7v-167h-132v661h143z" />
    <glyph glyph-name="paragraph" unicode="&#xb6;" horiz-adv-x="662" 
d="M395 -127h-127v432q-221 12 -221 188q0 45 16.5 80t46.5 57q15 10 30.5 17.5t35 11.5t44 6t56.5 2h320v-794h-127v661h-74v-661z" />
    <glyph glyph-name="periodcentered" unicode="&#xb7;" horiz-adv-x="267" 
d="M133 284q18 0 33 -6.5t26.5 -18t18 -26.5t6.5 -32q0 -35 -24.5 -59.5t-59.5 -24.5t-59 24.5t-24 59.5q0 34 24.5 58.5t58.5 24.5z" />
    <glyph glyph-name="cedilla" unicode="&#xb8;" horiz-adv-x="500" 
d="M258 -54q12 2 19 3t15 1q27 0 44.5 -17.5t17.5 -43.5q0 -32 -29.5 -52t-77.5 -20q-27 0 -53.5 7t-47.5 19l21 34q16 -8 35.5 -13.5t34.5 -5.5q17 0 28 9t11 23q0 11 -8 18.5t-19 7.5q-6 0 -12 -1t-20 -5l-13 13l60 80h33z" />
    <glyph glyph-name="uni00B9" unicode="&#xb9;" horiz-adv-x="333" 
d="M230 257h-102v274q-21 -13 -36 -19t-38 -11v79q38 11 73.5 31t52.5 40h50v-394z" />
    <glyph glyph-name="ordmasculine" unicode="&#xba;" horiz-adv-x="353" 
d="M176 570q75 0 113 -40t38 -118q0 -74 -39 -113.5t-112 -39.5t-111.5 40t-38.5 115q0 76 38.5 116t111.5 40zM176 495q-25 0 -36 -19t-11 -61t11 -61t37 -19q47 0 47 79q0 43 -11 62t-37 19z" />
    <glyph glyph-name="guillemotright" unicode="&#xbb;" horiz-adv-x="515" 
d="M196 397l49 -143l-49 -144h-136l52 144l-52 143h136zM402 397l50 -143l-50 -144h-135l52 144l-52 143h135z" />
    <glyph glyph-name="onequarter" unicode="&#xbc;" horiz-adv-x="800" 
d="M230 257h-102v274q-21 -13 -36 -19t-38 -11v79q38 11 73.5 31t52.5 40h50v-394zM614 643l-337 -643h-90l337 643h90zM730 140h42v-77h-42v-63h-96v63h-149v69l119 256h126v-248zM634 303l-75 -163h75v163z" />
    <glyph glyph-name="onehalf" unicode="&#xbd;" horiz-adv-x="800" 
d="M230 257h-102v274q-21 -13 -36 -19t-38 -11v79q38 11 73.5 31t52.5 40h50v-394zM614 643l-337 -643h-90l337 643h90zM748 83v-83h-260l15 36l120 183q28 43 28 68q0 14 -8 22t-21 8q-32 0 -32 -43v-13h-94q0 24 2 35.5t7 26.5q11 34 44.5 52.5t81.5 18.5q57 0 91 -28
t34 -74q0 -24 -8.5 -47.5t-28.5 -49.5l-80 -112h109z" />
    <glyph glyph-name="threequarters" unicode="&#xbe;" horiz-adv-x="800" 
d="M297 643v-16l-94 -113q21 -3 32.5 -7t20.5 -11q19 -15 28.5 -40.5t9.5 -57.5q0 -70 -38.5 -109.5t-105.5 -39.5q-60 0 -93 31t-33 88v8l94 15q1 -35 9.5 -50.5t27.5 -15.5q18 0 26.5 15.5t8.5 50.5q0 30 -8 43.5t-26 13.5q-11 0 -17.5 -5t-16.5 -21l-50 46l81 96h-110v79
h254zM614 643l-337 -643h-90l337 643h90zM730 140h42v-77h-42v-63h-96v63h-148v69l119 256h125v-248zM634 303l-75 -163h75v163z" />
    <glyph glyph-name="questiondown" unicode="&#xbf;" horiz-adv-x="510" 
d="M447 68q-1 -30 -2.5 -51.5t-4.5 -37t-8 -27.5t-13 -23q-24 -35 -68.5 -55t-99.5 -20q-42 0 -76.5 13t-59.5 36t-38.5 56t-13.5 72t14 75.5t44 75.5l42 54q26 34 35 51.5t9 35.5h133q0 -27 -5 -44.5t-21 -39.5l-63 -91q-12 -17 -19 -30t-11.5 -24.5t-6 -23t-1.5 -26.5
q0 -34 13.5 -53t37.5 -19q23 0 36.5 20t13.5 55v21h133zM274 544q35 0 59 -24.5t24 -59.5q0 -34 -24.5 -58.5t-58.5 -24.5q-35 0 -59.5 24.5t-24.5 59.5q0 17 6.5 32t18 26.5t26.5 18t33 6.5z" />
    <glyph glyph-name="Agrave" unicode="&#xc0;" horiz-adv-x="609" 
d="M593 0h-169l-23 105h-198l-25 -105h-161l195 670h192zM306 519l-72 -294h139zM369 727h-98l-120 127v13h153z" />
    <glyph glyph-name="Aacute" unicode="&#xc1;" horiz-adv-x="609" 
d="M593 0h-169l-23 105h-198l-25 -105h-161l195 670h192zM306 519l-72 -294h139zM465 867v-13l-120 -127h-98l65 140h153z" />
    <glyph glyph-name="Acircumflex" unicode="&#xc2;" horiz-adv-x="609" 
d="M593 0h-169l-23 105h-198l-25 -105h-161l195 670h192zM306 519l-72 -294h139zM264 727h-89l60 140h147l60 -140h-89l-45 68z" />
    <glyph glyph-name="Atilde" unicode="&#xc3;" horiz-adv-x="609" 
d="M593 0h-169l-23 105h-198l-25 -105h-161l195 670h192zM306 519l-72 -294h139zM434 860q1 -5 1 -10v-7q0 -113 -76 -113q-8 0 -13 0.5t-12 3t-17.5 7t-28.5 12.5q-12 6 -22 6q-11 0 -18 -9t-8 -23h-58v16q0 104 74 104q12 0 27.5 -5t41.5 -17q16 -7 23 -7q26 0 29 42h57z
" />
    <glyph glyph-name="Adieresis" unicode="&#xc4;" horiz-adv-x="609" 
d="M593 0h-169l-23 105h-198l-25 -105h-161l195 670h192zM306 519l-72 -294h139zM383 863q54 0 54 -73q0 -70 -55 -70t-55 71q0 72 56 72zM236 863q54 0 54 -73q0 -70 -55 -70t-55 71q0 72 56 72z" />
    <glyph glyph-name="Aring" unicode="&#xc5;" horiz-adv-x="609" 
d="M593 0h-169l-23 105h-198l-25 -105h-161l195 670h192zM306 519l-72 -294h139zM308 885q19 0 36.5 -7.5t30 -20t20 -29.5t7.5 -36q0 -20 -7.5 -37t-20 -29.5t-30 -20t-36.5 -7.5q-39 0 -66 27.5t-27 67.5q0 19 7.5 35.5t20 29t29.5 20t36 7.5zM308 842q-20 0 -35 -15
t-15 -35q0 -21 14.5 -36t35.5 -15t36 15t15 36q0 20 -15 35t-36 15z" />
    <glyph glyph-name="AE" unicode="&#xc6;" horiz-adv-x="838" 
d="M196 107l-32 -107h-165l228 667h567v-127h-260v-133h260v-123h-260v-154h260v-130h-417v107h-181zM377 544h-39l-102 -320h141v320z" />
    <glyph glyph-name="Ccedilla" unicode="&#xc7;" horiz-adv-x="565" 
d="M291 -54q12 2 19 3t15 1q27 0 44.5 -17.5t17.5 -43.5q0 -32 -29.5 -52t-77.5 -20q-27 0 -53.5 7t-47.5 19l21 34q16 -8 35.5 -13.5t34.5 -5.5q17 0 28 9t11 23q0 11 -8 18.5t-19 7.5q-6 0 -12 -1t-20 -5l-13 14l47 63q-237 9 -237 336q0 183 63 270t194 87q102 0 158 -50
t74 -157l-151 -34q-7 64 -25 91t-54 27q-50 0 -72.5 -54t-22.5 -172q0 -109 22.5 -161.5t69.5 -52.5q35 0 54.5 30t27.5 101l151 -51q-19 -96 -75 -150t-142 -59z" />
    <glyph glyph-name="Egrave" unicode="&#xc8;" horiz-adv-x="564" 
d="M511 540h-287v-137h287v-120h-287v-153h287v-130h-444v667h444v-127zM356 727h-98l-120 127v13h153z" />
    <glyph glyph-name="Eacute" unicode="&#xc9;" horiz-adv-x="564" 
d="M511 540h-287v-137h287v-120h-287v-153h287v-130h-444v667h444v-127zM453 867v-13l-120 -127h-98l65 140h153z" />
    <glyph glyph-name="Ecircumflex" unicode="&#xca;" horiz-adv-x="564" 
d="M511 540h-287v-137h287v-120h-287v-153h287v-130h-444v667h444v-127zM251 727h-89l60 140h147l60 -140h-89l-44 68z" />
    <glyph glyph-name="Edieresis" unicode="&#xcb;" horiz-adv-x="564" 
d="M511 540h-287v-137h287v-120h-287v-153h287v-130h-444v667h444v-127zM363 863q54 0 54 -73q0 -70 -55 -70t-55 71q0 72 56 72zM216 863q54 0 54 -73q0 -70 -54 -70q-55 0 -55 71q0 72 55 72z" />
    <glyph glyph-name="Igrave" unicode="&#xcc;" horiz-adv-x="291" 
d="M223 667v-667h-157v667h157zM206 727h-98l-120 127v13h153z" />
    <glyph glyph-name="Iacute" unicode="&#xcd;" horiz-adv-x="291" 
d="M224 667v-667h-157v667h157zM303 867v-13l-120 -127h-98l65 140h153z" />
    <glyph glyph-name="Icircumflex" unicode="&#xce;" horiz-adv-x="291" 
d="M224 667v-667h-157v667h157zM101 727h-89l60 140h147l60 -140h-89l-45 68z" />
    <glyph glyph-name="Idieresis" unicode="&#xcf;" horiz-adv-x="291" 
d="M224 667v-667h-157v667h157zM213 863q54 0 54 -73q0 -70 -54 -70q-55 0 -55 71q0 72 55 72zM80 863q54 0 54 -73q0 -70 -55 -70t-55 71q0 72 56 72z" />
    <glyph glyph-name="Eth" unicode="&#xd0;" horiz-adv-x="652" 
d="M7 284v107h60v276h213q45 0 78.5 -2.5t59 -9.5t45.5 -18t39 -28q94 -84 94 -263q0 -172 -84 -268q-37 -42 -85.5 -60t-125.5 -18h-234v284h-60zM224 120h23q98 0 141.5 50.5t43.5 164.5q0 113 -39 164t-126 51h-43v-159h101v-107h-101v-164z" />
    <glyph glyph-name="Ntilde" unicode="&#xd1;" horiz-adv-x="649" 
d="M582 0h-154l-224 458l3 -458h-140v667h154l224 -453l-3 453h140v-667zM451 860v-17q0 -113 -76 -113q-7 0 -12.5 0.5t-12.5 3t-17.5 7t-28.5 12.5q-12 6 -22 6q-11 0 -17.5 -9t-8.5 -23h-57q0 18 0.5 29.5t1 19t2 13.5t4.5 12q18 46 66 46q12 0 27.5 -5t41.5 -17
q16 -7 22 -7q27 0 30 42h57z" />
    <glyph glyph-name="Ograve" unicode="&#xd2;" horiz-adv-x="658" 
d="M333 680q72 0 118 -17.5t81 -58.5q19 -23 33 -49.5t22.5 -59.5t12.5 -73t4 -90q0 -49 -4 -88.5t-13 -71.5t-22.5 -58.5t-32.5 -49.5q-35 -42 -84.5 -59.5t-127.5 -17.5q-68 0 -115.5 18.5t-79.5 57.5q-20 24 -33.5 50.5t-22 59t-12.5 72t-4 89.5q0 49 4 89t12.5 72
t22 58.5t33.5 49.5q35 40 84 58.5t124 18.5zM329 557q-57 0 -84.5 -53.5t-27.5 -166.5q0 -118 26.5 -172.5t85.5 -54.5q57 0 84 54t27 170q0 115 -27 169t-84 54zM390 727h-98l-120 127v13h153z" />
    <glyph glyph-name="Oacute" unicode="&#xd3;" horiz-adv-x="658" 
d="M333 680q72 0 118 -17.5t81 -58.5q19 -23 33 -49.5t22.5 -59.5t12.5 -73t4 -90q0 -49 -4 -88.5t-13 -71.5t-22.5 -58.5t-32.5 -49.5q-35 -42 -84.5 -59.5t-127.5 -17.5q-68 0 -115.5 18.5t-79.5 57.5q-20 24 -33.5 50.5t-22 59t-12.5 72t-4 89.5q0 49 4 89t12.5 72
t22 58.5t33.5 49.5q35 40 84 58.5t124 18.5zM329 557q-57 0 -84.5 -53.5t-27.5 -166.5q0 -118 26.5 -172.5t85.5 -54.5q57 0 84 54t27 170q0 115 -27 169t-84 54zM486 867v-13l-120 -127h-98l65 140h153z" />
    <glyph glyph-name="Ocircumflex" unicode="&#xd4;" horiz-adv-x="658" 
d="M333 680q72 0 118 -17.5t81 -58.5q19 -23 33 -49.5t22.5 -59.5t12.5 -73t4 -90q0 -49 -4 -88.5t-13 -71.5t-22.5 -58.5t-32.5 -49.5q-35 -42 -84.5 -59.5t-127.5 -17.5q-68 0 -115.5 18.5t-79.5 57.5q-20 24 -33.5 50.5t-22 59t-12.5 72t-4 89.5q0 49 4 89t12.5 72
t22 58.5t33.5 49.5q35 40 84 58.5t124 18.5zM329 557q-57 0 -84.5 -53.5t-27.5 -166.5q0 -118 26.5 -172.5t85.5 -54.5q57 0 84 54t27 170q0 115 -27 169t-84 54zM284 727h-89l60 140h147l60 -140h-89l-44 68z" />
    <glyph glyph-name="Otilde" unicode="&#xd5;" horiz-adv-x="658" 
d="M333 680q72 0 118 -17.5t81 -58.5q19 -23 33 -49.5t22.5 -59.5t12.5 -73t4 -90q0 -49 -4 -88.5t-13 -71.5t-22.5 -58.5t-32.5 -49.5q-35 -42 -84.5 -59.5t-127.5 -17.5q-68 0 -115.5 18.5t-79.5 57.5q-20 24 -33.5 50.5t-22 59t-12.5 72t-4 89.5q0 49 4 89t12.5 72
t22 58.5t33.5 49.5q35 40 84 58.5t124 18.5zM329 557q-57 0 -84.5 -53.5t-27.5 -166.5q0 -118 26.5 -172.5t85.5 -54.5q57 0 84 54t27 170q0 115 -27 169t-84 54zM455 860v-17q0 -113 -76 -113q-7 0 -12.5 0.5t-12.5 3t-17.5 7t-28.5 12.5q-12 6 -22 6q-11 0 -17.5 -9
t-8.5 -23h-57q0 18 0.5 29.5t1 19t2 13.5t4.5 12q18 46 66 46q12 0 27.5 -5t41.5 -17q16 -7 22 -7q27 0 30 42h57z" />
    <glyph glyph-name="Odieresis" unicode="&#xd6;" horiz-adv-x="658" 
d="M333 680q72 0 118 -17.5t81 -58.5q19 -23 33 -49.5t22.5 -59.5t12.5 -73t4 -90q0 -49 -4 -88.5t-13 -71.5t-22.5 -58.5t-32.5 -49.5q-35 -42 -84.5 -59.5t-127.5 -17.5q-68 0 -115.5 18.5t-79.5 57.5q-20 24 -33.5 50.5t-22 59t-12.5 72t-4 89.5q0 49 4 89t12.5 72
t22 58.5t33.5 49.5q35 40 84 58.5t124 18.5zM329 557q-57 0 -84.5 -53.5t-27.5 -166.5q0 -118 26.5 -172.5t85.5 -54.5q57 0 84 54t27 170q0 115 -27 169t-84 54zM403 863q54 0 54 -73q0 -70 -55 -70t-55 71q0 72 56 72zM256 863q54 0 54 -73q0 -70 -55 -70t-55 71
q0 72 56 72z" />
    <glyph glyph-name="multiply" unicode="&#xd7;" 
d="M117 107l-75 76l139 139l-139 139l75 75l139 -139l140 139l75 -75l-139 -139l139 -139l-75 -76l-140 139z" />
    <glyph glyph-name="Oslash" unicode="&#xd8;" horiz-adv-x="658" 
d="M554 576q14 -22 23.5 -46t15.5 -53t9 -63.5t3 -76.5q0 -51 -4 -91.5t-12.5 -73t-22.5 -59t-33 -49.5q-35 -41 -84.5 -59t-124.5 -18q-66 0 -109 14.5t-78 46.5l-57 -72l-41 34l65 82q-27 44 -38.5 99t-11.5 139q0 51 4 91.5t12.5 73t22 59t33.5 49.5q35 41 84.5 59
t124.5 18q65 0 108 -14t78 -46l56 71l43 -32zM239 177q27 -67 90 -67q58 0 85 53.5t27 168.5q0 26 -1.5 47.5t-3.5 46.5zM419 491q-26 66 -89 66q-57 0 -84.5 -54t-27.5 -168q0 -23 1.5 -44.5t3.5 -47.5z" />
    <glyph glyph-name="Ugrave" unicode="&#xd9;" horiz-adv-x="647" 
d="M580 667v-412q0 -40 -3.5 -70.5t-12 -55t-22.5 -44.5t-34 -38q-67 -60 -185 -60t-184 57q-20 17 -34 36t-22.5 42.5t-12 52.5t-3.5 67v425h157v-417q0 -66 25.5 -101t73.5 -35q100 0 100 150v403h157zM385 727h-98l-120 127v13h153z" />
    <glyph glyph-name="Uacute" unicode="&#xda;" horiz-adv-x="647" 
d="M580 667v-412q0 -40 -3.5 -70.5t-12 -55t-22.5 -44.5t-34 -38q-67 -60 -185 -60t-184 57q-20 17 -34 36t-22.5 42.5t-12 52.5t-3.5 67v425h157v-417q0 -66 25.5 -101t73.5 -35q100 0 100 150v403h157zM481 867v-13l-120 -127h-98l65 140h153z" />
    <glyph glyph-name="Ucircumflex" unicode="&#xdb;" horiz-adv-x="647" 
d="M580 667v-412q0 -40 -3.5 -70.5t-12 -55t-22.5 -44.5t-34 -38q-67 -60 -185 -60t-184 57q-20 17 -34 36t-22.5 42.5t-12 52.5t-3.5 67v425h157v-417q0 -66 25.5 -101t73.5 -35q100 0 100 150v403h157zM279 727h-89l60 140h147l60 -140h-89l-44 68z" />
    <glyph glyph-name="Udieresis" unicode="&#xdc;" horiz-adv-x="647" 
d="M580 667v-412q0 -40 -3.5 -70.5t-12 -55t-22.5 -44.5t-34 -38q-67 -60 -185 -60t-184 57q-20 17 -34 36t-22.5 42.5t-12 52.5t-3.5 67v425h157v-417q0 -66 25.5 -101t73.5 -35q100 0 100 150v403h157zM398 863q54 0 54 -73q0 -70 -55 -70t-55 71q0 72 56 72zM251 863
q54 0 54 -73q0 -70 -55 -70t-55 71q0 72 56 72z" />
    <glyph glyph-name="Yacute" unicode="&#xdd;" horiz-adv-x="609" 
d="M197 667l89 -197q9 -20 14.5 -38.5t11.5 -49.5l112 285h165l-204 -401v-266h-157v266l-208 401h177zM462 867v-13l-120 -127h-98l65 140h153z" />
    <glyph glyph-name="Thorn" unicode="&#xde;" horiz-adv-x="601" 
d="M224 667v-112h57q40 0 70.5 -2.5t54.5 -7.5t43.5 -14t37.5 -22q37 -27 57 -70.5t20 -98.5q0 -118 -90 -182q-39 -28 -86 -40.5t-113 -12.5h-51v-105h-157v667h157zM224 228h39q41 0 60.5 4t37.5 16t28.5 34t10.5 48t-10.5 48t-28.5 34t-37.5 16t-60.5 4h-39v-204z" />
    <glyph glyph-name="germandbls" unicode="&#xdf;" horiz-adv-x="555" 
d="M67 0v473q0 51 8.5 85.5t28.5 58.5q51 63 175 63q90 0 141.5 -43.5t51.5 -119.5q0 -42 -15.5 -71t-53.5 -56q49 -23 72.5 -64.5t23.5 -107.5q0 -50 -12.5 -91.5t-34.5 -71.5t-53 -46.5t-68 -16.5q-14 0 -27 1.5t-32 5.5l-10 120q14 -7 27 -7q32 0 45.5 25t13.5 85
q0 59 -16.5 82.5t-59.5 23.5h-10v109h10q59 0 59 65q0 32 -15 49.5t-43 17.5q-32 0 -47.5 -22t-15.5 -70v-477h-143z" />
    <glyph glyph-name="agrave" unicode="&#xe0;" horiz-adv-x="555" 
d="M489 0h-143v93q-29 -58 -59.5 -81.5t-78.5 -23.5q-75 0 -117.5 66.5t-42.5 184.5q0 59 12 107.5t33.5 83t51.5 53.5t67 19q44 0 81.5 -29t55.5 -77v94h140v-490zM270 390q-35 0 -55 -37q-8 -17 -11 -40t-3 -69q0 -25 1 -42.5t3 -31t5.5 -23t9.5 -18.5q18 -30 51 -30
q32 0 52 31q20 30 20 113q0 36 -2.5 59t-9.5 41q-8 22 -24.5 34.5t-36.5 12.5zM339 557h-98l-120 127v13h153z" />
    <glyph glyph-name="aacute" unicode="&#xe1;" horiz-adv-x="555" 
d="M489 0h-143v93q-29 -58 -59.5 -81.5t-78.5 -23.5q-75 0 -117.5 66.5t-42.5 184.5q0 59 12 107.5t33.5 83t51.5 53.5t67 19q44 0 81.5 -29t55.5 -77v94h140v-490zM270 390q-35 0 -55 -37q-8 -17 -11 -40t-3 -69q0 -25 1 -42.5t3 -31t5.5 -23t9.5 -18.5q18 -30 51 -30
q32 0 52 31q20 30 20 113q0 36 -2.5 59t-9.5 41q-8 22 -24.5 34.5t-36.5 12.5zM435 697v-13l-120 -127h-98l65 140h153z" />
    <glyph glyph-name="acircumflex" unicode="&#xe2;" horiz-adv-x="555" 
d="M489 0h-143v93q-29 -58 -59.5 -81.5t-78.5 -23.5q-75 0 -117.5 66.5t-42.5 184.5q0 59 12 107.5t33.5 83t51.5 53.5t67 19q44 0 81.5 -29t55.5 -77v94h140v-490zM270 390q-35 0 -55 -37q-8 -17 -11 -40t-3 -69q0 -25 1 -42.5t3 -31t5.5 -23t9.5 -18.5q18 -30 51 -30
q32 0 52 31q20 30 20 113q0 36 -2.5 59t-9.5 41q-8 22 -24.5 34.5t-36.5 12.5zM234 557h-89l59 140h147l60 -140h-89l-44 68z" />
    <glyph glyph-name="atilde" unicode="&#xe3;" horiz-adv-x="555" 
d="M489 0h-143v93q-29 -58 -59.5 -81.5t-78.5 -23.5q-75 0 -117.5 66.5t-42.5 184.5q0 59 12 107.5t33.5 83t51.5 53.5t67 19q44 0 81.5 -29t55.5 -77v94h140v-490zM270 390q-35 0 -55 -37q-8 -17 -11 -40t-3 -69q0 -25 1 -42.5t3 -31t5.5 -23t9.5 -18.5q18 -30 51 -30
q32 0 52 31q20 30 20 113q0 36 -2.5 59t-9.5 41q-8 22 -24.5 34.5t-36.5 12.5zM404 690q0 -29 -1 -44.5t-6 -29.5q-17 -56 -69 -56q-8 0 -13 0.5t-12 3t-17.5 7.5t-28.5 13q-12 6 -22 6q-11 0 -17.5 -9t-8.5 -24h-57q0 34 1.5 48t6.5 27q18 46 66 46q12 0 27.5 -5t41.5 -17
q16 -7 23 -7q26 0 29 41h57z" />
    <glyph glyph-name="adieresis" unicode="&#xe4;" horiz-adv-x="555" 
d="M489 0h-143v93q-29 -58 -59.5 -81.5t-78.5 -23.5q-75 0 -117.5 66.5t-42.5 184.5q0 59 12 107.5t33.5 83t51.5 53.5t67 19q44 0 81.5 -29t55.5 -77v94h140v-490zM270 390q-35 0 -55 -37q-8 -17 -11 -40t-3 -69q0 -25 1 -42.5t3 -31t5.5 -23t9.5 -18.5q18 -30 51 -30
q32 0 52 31q20 30 20 113q0 36 -2.5 59t-9.5 41q-8 22 -24.5 34.5t-36.5 12.5zM352 693q54 0 54 -73q0 -70 -55 -70t-55 71q0 72 56 72zM205 693q54 0 54 -73q0 -70 -54 -70q-55 0 -55 71q0 72 55 72z" />
    <glyph glyph-name="aring" unicode="&#xe5;" horiz-adv-x="555" 
d="M489 0h-143v93q-29 -58 -59.5 -81.5t-78.5 -23.5q-75 0 -117.5 66.5t-42.5 184.5q0 59 12 107.5t33.5 83t51.5 53.5t67 19q44 0 81.5 -29t55.5 -77v94h140v-490zM270 390q-35 0 -55 -37q-8 -17 -11 -40t-3 -69q0 -25 1 -42.5t3 -31t5.5 -23t9.5 -18.5q18 -30 51 -30
q32 0 52 31q20 30 20 113q0 36 -2.5 59t-9.5 41q-8 22 -24.5 34.5t-36.5 12.5zM277 715q39 0 66.5 -27t27.5 -66t-27.5 -66t-66.5 -27q-19 0 -36 7.5t-29.5 20t-19.5 29.5t-7 37q0 38 27 65t65 27zM278 672q-20 0 -35 -14.5t-15 -34.5q0 -21 14.5 -36t35.5 -15t35.5 14.5
t14.5 35.5t-14.5 35.5t-35.5 14.5z" />
    <glyph glyph-name="ae" unicode="&#xe6;" horiz-adv-x="756" 
d="M703 132q-8 -70 -60 -107.5t-140 -37.5q-28 0 -49.5 3t-39.5 10.5t-33.5 20t-30.5 30.5q-20 -18 -37.5 -30.5t-35 -20t-37 -10.5t-42.5 -3q-75 0 -120 42t-45 112q0 42 18 75t52 53q28 17 63 24t86 7h49l1 17q0 40 -16.5 61.5t-47.5 21.5q-43 0 -61 -57l-132 37
q9 25 17.5 40.5t19.5 28.5q23 26 60 40t82 14q89 0 147 -47q29 24 61.5 35.5t74.5 11.5q63 0 110 -26t69 -74q7 -15 11.5 -30t7.5 -32t4 -38.5t1 -49.5v-17t-1 -23h-272q1 -63 17.5 -91.5t52.5 -28.5q52 0 61 66zM283 214q-53 0 -80.5 -17t-27.5 -49q0 -25 15.5 -40
t40.5 -15q35 0 53.5 24t18.5 69q0 2 -0.5 11t-1.5 17h-18zM569 298q0 101 -66 101t-66 -101h132z" />
    <glyph glyph-name="ccedilla" unicode="&#xe7;" horiz-adv-x="475" 
d="M246 -54q12 2 19 3t15 1q27 0 44.5 -17.5t17.5 -43.5q0 -32 -29.5 -52t-77.5 -20q-27 0 -53.5 7t-47.5 19l21 34q16 -8 35.5 -13.5t34.5 -5.5q17 0 28 9t11 23q0 11 -8 18.5t-19 7.5q-6 0 -12 -1t-20 -5l-13 14l47 63q-95 7 -143.5 71.5t-48.5 185.5q0 127 54 193t157 66
q53 0 93.5 -17t62.5 -49q11 -16 17.5 -36.5t13.5 -57.5l-128 -35q-6 79 -55 79q-32 0 -46.5 -32.5t-14.5 -101.5q0 -81 14 -115t46 -34q23 0 35.5 16.5t20.5 60.5l128 -45q-16 -72 -57 -107.5t-114 -40.5z" />
    <glyph glyph-name="egrave" unicode="&#xe8;" 
d="M194 213q1 -63 18 -91.5t53 -28.5q51 0 61 66l135 -27q-9 -70 -60.5 -107.5t-139.5 -37.5q-54 0 -90.5 13t-62.5 42q-32 35 -46.5 82t-14.5 119q0 67 11.5 112t37.5 77q27 35 70 53t96 18q65 0 112 -26t69 -74q7 -15 11.5 -30t7.5 -32.5t4 -38.5t1 -49v-40h-273zM327 298
q-2 101 -67 101q-66 0 -66 -101h133zM318 557h-98l-120 127v13h153z" />
    <glyph glyph-name="eacute" unicode="&#xe9;" 
d="M194 213q1 -63 18 -91.5t53 -28.5q51 0 61 66l135 -27q-9 -70 -60.5 -107.5t-139.5 -37.5q-54 0 -90.5 13t-62.5 42q-32 35 -46.5 82t-14.5 119q0 67 11.5 112t37.5 77q27 35 70 53t96 18q65 0 112 -26t69 -74q7 -15 11.5 -30t7.5 -32.5t4 -38.5t1 -49v-40h-273zM327 298
q-2 101 -67 101q-66 0 -66 -101h133zM414 697v-13l-120 -127h-98l65 140h153z" />
    <glyph glyph-name="ecircumflex" unicode="&#xea;" 
d="M194 213q1 -63 18 -91.5t53 -28.5q51 0 61 66l135 -27q-9 -70 -60.5 -107.5t-139.5 -37.5q-54 0 -90.5 13t-62.5 42q-32 35 -46.5 82t-14.5 119q0 67 11.5 112t37.5 77q27 35 70 53t96 18q65 0 112 -26t69 -74q7 -15 11.5 -30t7.5 -32.5t4 -38.5t1 -49v-40h-273zM327 298
q-2 101 -67 101q-66 0 -66 -101h133zM212 557h-88l59 140h147l60 -140h-89l-44 68z" />
    <glyph glyph-name="edieresis" unicode="&#xeb;" 
d="M194 213q1 -63 18 -91.5t53 -28.5q51 0 61 66l135 -27q-9 -70 -60.5 -107.5t-139.5 -37.5q-54 0 -90.5 13t-62.5 42q-32 35 -46.5 82t-14.5 119q0 67 11.5 112t37.5 77q27 35 70 53t96 18q65 0 112 -26t69 -74q7 -15 11.5 -30t7.5 -32.5t4 -38.5t1 -49v-40h-273zM327 298
q-2 101 -67 101q-66 0 -66 -101h133zM331 693q54 0 54 -73q0 -70 -55 -70t-55 71q0 72 56 72zM184 693q54 0 54 -73q0 -70 -55 -70t-55 71q0 72 56 72z" />
    <glyph glyph-name="igrave" unicode="&#xec;" horiz-adv-x="277" 
d="M209 0h-143v490h143v-490zM199 557h-98l-120 127v13h153z" />
    <glyph glyph-name="iacute" unicode="&#xed;" horiz-adv-x="277" 
d="M210 0h-143v490h143v-490zM296 697v-13l-120 -127h-98l65 140h153z" />
    <glyph glyph-name="icircumflex" unicode="&#xee;" horiz-adv-x="277" 
d="M210 0h-143v490h143v-490zM94 557h-89l60 140h147l60 -140h-89l-45 68z" />
    <glyph glyph-name="idieresis" unicode="&#xef;" horiz-adv-x="277" 
d="M210 0h-143v490h143v-490zM206 693q54 0 54 -73q0 -70 -54 -70q-55 0 -55 71q0 72 55 72zM73 693q54 0 54 -73q0 -70 -55 -70t-55 71q0 72 56 72z" />
    <glyph glyph-name="eth" unicode="&#xf0;" horiz-adv-x="560" 
d="M201 483l-44 75l51 24l-55 85h166l15 -25l53 25l43 -75l-53 -25l54 -92q26 -45 42.5 -77t25.5 -59t12 -53t3 -59q0 -118 -59.5 -179t-173.5 -61q-115 0 -174.5 61t-59.5 177q0 63 18 111t53 77q29 25 74 39t86 12q4 0 8 -1l-30 46zM280 349q-42 0 -61 -29.5t-19 -92.5
t19.5 -92.5t61.5 -29.5t61 29t19 91q0 66 -19 95t-62 29z" />
    <glyph glyph-name="ntilde" unicode="&#xf1;" horiz-adv-x="557" 
d="M207 490v-93q35 54 72 78.5t86 24.5q31 0 58.5 -12t45.5 -33q15 -18 21.5 -40t6.5 -54v-361h-143v300q0 23 -2.5 35t-9.5 22q-18 24 -52 24q-80 0 -80 -125v-256h-143v490h140zM405 690v-17q0 -113 -76 -113q-8 0 -13 0.5t-12 3t-17.5 7.5t-28.5 13q-12 6 -22 6
q-11 0 -17.5 -9t-8.5 -24h-57q0 18 0.5 29.5t1 19.5t2 14t4.5 12q18 46 66 46q12 0 27.5 -5t41.5 -17q16 -7 22 -7q27 0 30 41h57z" />
    <glyph glyph-name="ograve" unicode="&#xf2;" horiz-adv-x="560" 
d="M280 503q116 0 175 -66t59 -196q0 -123 -60.5 -188.5t-173.5 -65.5q-114 0 -173.5 66t-59.5 192t59.5 192t173.5 66zM280 388q-42 0 -61 -34t-19 -107q0 -74 19.5 -108t61.5 -34t61 34t19 106q0 75 -19.5 109t-61.5 34zM341 557h-98l-120 127v13h153z" />
    <glyph glyph-name="oacute" unicode="&#xf3;" horiz-adv-x="560" 
d="M280 503q116 0 175 -66t59 -196q0 -123 -60.5 -188.5t-173.5 -65.5q-114 0 -173.5 66t-59.5 192t59.5 192t173.5 66zM280 388q-42 0 -61 -34t-19 -107q0 -74 19.5 -108t61.5 -34t61 34t19 106q0 75 -19.5 109t-61.5 34zM437 697v-13l-120 -127h-98l65 140h153z" />
    <glyph glyph-name="ocircumflex" unicode="&#xf4;" horiz-adv-x="560" 
d="M280 503q116 0 175 -66t59 -196q0 -123 -60.5 -188.5t-173.5 -65.5q-114 0 -173.5 66t-59.5 192t59.5 192t173.5 66zM280 388q-42 0 -61 -34t-19 -107q0 -74 19.5 -108t61.5 -34t61 34t19 106q0 75 -19.5 109t-61.5 34zM236 557h-89l60 140h147l60 -140h-89l-45 68z" />
    <glyph glyph-name="otilde" unicode="&#xf5;" horiz-adv-x="560" 
d="M280 503q116 0 175 -66t59 -196q0 -123 -60.5 -188.5t-173.5 -65.5q-114 0 -173.5 66t-59.5 192t59.5 192t173.5 66zM280 388q-42 0 -61 -34t-19 -107q0 -74 19.5 -108t61.5 -34t61 34t19 106q0 75 -19.5 109t-61.5 34zM407 690v-17q0 -113 -76 -113q-8 0 -13 0.5t-12 3
t-17.5 7.5t-28.5 13q-12 6 -22 6q-11 0 -18 -9t-8 -24h-58v16q0 105 74 105q13 0 28.5 -5t40.5 -17q16 -7 23 -7q26 0 29 41h58z" />
    <glyph glyph-name="odieresis" unicode="&#xf6;" horiz-adv-x="560" 
d="M280 503q116 0 175 -66t59 -196q0 -123 -60.5 -188.5t-173.5 -65.5q-114 0 -173.5 66t-59.5 192t59.5 192t173.5 66zM280 388q-42 0 -61 -34t-19 -107q0 -74 19.5 -108t61.5 -34t61 34t19 106q0 75 -19.5 109t-61.5 34zM355 693q54 0 54 -73q0 -70 -55 -70t-55 71
q0 72 56 72zM208 693q54 0 54 -73q0 -70 -55 -70t-55 71q0 72 56 72z" />
    <glyph glyph-name="divide" unicode="&#xf7;" 
d="M487 375v-107h-460v107h460zM257 214q27 0 46.5 -19t19.5 -47t-19.5 -47t-46.5 -19q-28 0 -47 19.5t-19 47.5q0 26 19.5 45.5t46.5 19.5zM257 561q27 0 46.5 -19t19.5 -47t-19.5 -47t-46.5 -19q-28 0 -47 19.5t-19 47.5q0 26 19.5 45.5t46.5 19.5z" />
    <glyph glyph-name="oslash" unicode="&#xf8;" horiz-adv-x="560" 
d="M468 418q45 -67 45 -174q0 -125 -60 -191t-173 -66q-95 0 -155 48l-51 -57l-37 32l55 61q-46 68 -46 175q0 125 60 191t173 66q96 0 156 -48l51 57l36 -33zM218 139q21 -34 62 -34q42 0 61 34t19 108q0 13 -0.5 22t-2.5 25zM342 351q-19 37 -63 37q-42 0 -61 -34
t-19 -108q0 -14 1 -25t3 -26z" />
    <glyph glyph-name="ugrave" unicode="&#xf9;" horiz-adv-x="550" 
d="M490 490v-290q0 -63 -17 -103.5t-55 -69.5q-29 -21 -62 -30.5t-81 -9.5t-81 9.5t-62 30.5q-38 29 -55 69.5t-17 103.5v290h143v-250q0 -67 17 -97.5t55 -30.5t55 30.5t17 97.5v250h143zM336 557h-98l-120 127v13h153z" />
    <glyph glyph-name="uacute" unicode="&#xfa;" horiz-adv-x="550" 
d="M490 490v-290q0 -63 -17 -103.5t-55 -69.5q-29 -21 -62 -30.5t-81 -9.5t-81 9.5t-62 30.5q-38 29 -55 69.5t-17 103.5v290h143v-250q0 -67 17 -97.5t55 -30.5t55 30.5t17 97.5v250h143zM432 697v-13l-120 -127h-98l65 140h153z" />
    <glyph glyph-name="ucircumflex" unicode="&#xfb;" horiz-adv-x="550" 
d="M490 490v-290q0 -63 -17 -103.5t-55 -69.5q-29 -21 -62 -30.5t-81 -9.5t-81 9.5t-62 30.5q-38 29 -55 69.5t-17 103.5v290h143v-250q0 -67 17 -97.5t55 -30.5t55 30.5t17 97.5v250h143zM231 557h-89l60 140h146l60 -140h-89l-44 68z" />
    <glyph glyph-name="udieresis" unicode="&#xfc;" horiz-adv-x="550" 
d="M490 490v-290q0 -63 -17 -103.5t-55 -69.5q-29 -21 -62 -30.5t-81 -9.5t-81 9.5t-62 30.5q-38 29 -55 69.5t-17 103.5v290h143v-250q0 -67 17 -97.5t55 -30.5t55 30.5t17 97.5v250h143zM349 693q54 0 54 -73q0 -70 -54 -70q-55 0 -55 71q0 72 55 72zM202 693q54 0 54 -73
q0 -70 -54 -70q-55 0 -55 71q0 72 55 72z" />
    <glyph glyph-name="yacute" unicode="&#xfd;" horiz-adv-x="518" 
d="M282 -133h-149l61 169l-174 454h164l81 -285l84 285h149zM423 697v-13l-120 -127h-98l65 140h153z" />
    <glyph glyph-name="thorn" unicode="&#xfe;" horiz-adv-x="561" 
d="M207 667v-272q54 107 146 107q43 0 78.5 -26.5t53.5 -71.5q12 -31 17.5 -66t5.5 -84q0 -61 -9.5 -104t-29.5 -79q-22 -38 -54.5 -58t-71.5 -20q-43 0 -74 22.5t-59 75.5v-224h-143v800h140zM285 393q-72 0 -72 -144q0 -72 17.5 -106.5t54.5 -34.5q35 0 52.5 35t17.5 103
q0 76 -17 111.5t-53 35.5z" />
    <glyph glyph-name="ydieresis" unicode="&#xff;" horiz-adv-x="518" 
d="M282 -133h-149l61 169l-174 454h164l81 -285l84 285h149zM340 693q54 0 54 -73q0 -70 -55 -70t-55 71q0 72 56 72zM193 693q54 0 54 -73q0 -70 -55 -70t-55 71q0 72 56 72z" />
    <glyph glyph-name="dotlessi" unicode="&#x131;" horiz-adv-x="277" 
d="M210 0h-143v490h143v-490z" />
    <glyph glyph-name="OE" unicode="&#x152;" horiz-adv-x="836" 
d="M793 540h-240v-133h240v-123h-240v-154h240v-130h-397q-35 -8 -58.5 -10.5t-50.5 -2.5q-58 0 -105 23.5t-79 68.5q-17 24 -29.5 49.5t-20 55.5t-11 65.5t-3.5 78.5q0 352 269 352q27 0 45 -2.5t43 -10.5h397v-127zM400 380q0 53 -3 79t-12 46q-10 23 -30.5 36.5
t-46.5 13.5q-51 0 -81 -50q-13 -22 -20.5 -68.5t-7.5 -101.5q0 -61 9 -109t24 -70q26 -40 73 -40q49 0 72 42.5t23 133.5v88z" />
    <glyph glyph-name="oe" unicode="&#x153;" horiz-adv-x="804" 
d="M751 132q-8 -69 -59.5 -107t-136.5 -38q-50 0 -83 12t-63 41q-29 -28 -62.5 -41t-76.5 -13q-42 0 -83.5 14.5t-68.5 40.5q-35 32 -53 84t-18 119q0 124 59 191.5t167 67.5q43 0 76.5 -11.5t64.5 -37.5q57 49 143 49q62 0 109 -26.5t68 -73.5q7 -15 11.5 -30t7.5 -32.5
t4 -38.5t1 -49v-18.5t-1 -21.5h-273q2 -63 18.5 -91.5t52.5 -28.5q52 0 61 66zM270 388q-36 0 -53 -34t-17 -108t17 -108t53 -34t53 34t17 106q0 75 -16.5 109.5t-53.5 34.5zM617 298q0 101 -67 101q-64 0 -66 -101h133z" />
    <glyph glyph-name="Scaron" unicode="&#x160;" horiz-adv-x="561" 
d="M198 201q6 -91 81 -91q32 0 53 18.5t21 47.5q0 18 -8.5 31.5t-25.5 25.5q-10 7 -17 11.5t-19.5 11t-34 17t-60.5 29.5q-36 18 -61 36t-40 39t-21.5 46t-6.5 57q0 93 63.5 146.5t173.5 53.5q55 0 97 -14.5t68 -43.5q15 -16 25 -36.5t18 -52.5l-146 -51q-6 39 -24.5 57
t-53.5 18q-28 0 -45.5 -15.5t-17.5 -41.5t20 -46t66 -40q29 -12 48.5 -20.5t33 -15.5t23.5 -13t22 -14q84 -57 84 -154q0 -45 -19 -85.5t-54 -70.5q-35 -29 -76 -41.5t-101 -12.5q-118 0 -175 63q-17 17 -26 39t-16 58zM338 867h89l-60 -140h-147l-59 140h89l44 -68z" />
    <glyph glyph-name="scaron" unicode="&#x161;" horiz-adv-x="472" 
d="M296 343q-7 29 -21 42.5t-40 13.5q-21 0 -34.5 -10.5t-13.5 -27.5q0 -22 20 -34q4 -3 8.5 -4.5t28.5 -7.5l78 -24q57 -17 80.5 -46.5t23.5 -82.5q0 -40 -14 -72t-40 -55t-62.5 -35.5t-81.5 -12.5q-38 0 -66.5 6t-50 20t-37 36t-27.5 54l125 51q12 -56 61 -56q24 0 40 12
t16 30q0 13 -8 23q-3 3 -5.5 5t-7.5 4.5t-13.5 5t-23.5 7.5l-70 20q-50 15 -77.5 51.5t-27.5 87.5q0 36 13.5 65.5t37.5 50t58.5 32t76.5 11.5q145 0 171 -103zM281 697h89l-60 -140h-147l-60 140h89l44 -68z" />
    <glyph glyph-name="Ydieresis" unicode="&#x178;" horiz-adv-x="609" 
d="M197 667l89 -197q9 -20 14.5 -38.5t11.5 -49.5l112 285h165l-204 -401v-266h-157v266l-208 401h177zM379 863q54 0 54 -73q0 -70 -55 -70t-55 71q0 72 56 72zM232 863q54 0 54 -73q0 -70 -55 -70t-55 71q0 72 56 72z" />
    <glyph glyph-name="Zcaron" unicode="&#x17d;" horiz-adv-x="566" 
d="M526 635l-282 -505h273v-130h-497l17 64l265 476h-257v127h481v-32zM327 867h89l-60 -140h-147l-59 140h88l45 -68z" />
    <glyph glyph-name="zcaron" unicode="&#x17e;" horiz-adv-x="467" 
d="M420 463l-187 -344h181v-119h-385l16 56l174 319h-177v115h378v-27zM278 697h89l-60 -140h-147l-60 140h89l45 -68z" />
    <glyph glyph-name="florin" unicode="&#x192;" 
d="M454 528q-19 3 -24.5 3.5t-10.5 0.5q-18 0 -27 -8.5t-14 -29.5l-19 -79h77l-18 -105h-80l-73 -356q-7 -32 -17 -48.5t-30 -29.5q-48 -29 -128 -29q-20 0 -38 1.5t-45 5.5l20 117q12 -1 18.5 -1.5t12.5 -0.5q20 0 29.5 10.5t15.5 37.5l61 293h-75l17 105h77l20 105
q8 40 18.5 60t30.5 37q25 20 55 28.5t78 8.5q18 0 39 -1t55 -4z" />
    <glyph glyph-name="circumflex" unicode="&#x2c6;" horiz-adv-x="500" 
d="M206 557h-89l60 140h147l60 -140h-89l-45 68z" />
    <glyph glyph-name="tilde" unicode="&#x2dc;" horiz-adv-x="500" 
d="M376 690q1 -5 1 -10v-7q0 -113 -76 -113q-8 0 -13.5 0.5t-12.5 3t-17.5 7.5t-27.5 13q-12 6 -23 6t-17.5 -9t-7.5 -24h-58v16q0 105 74 105q13 0 28.5 -5t40.5 -17q16 -7 23 -7q26 0 29 41h57z" />
    <glyph glyph-name="endash" unicode="&#x2013;" horiz-adv-x="460" 
d="M460 315v-113h-460v113h460z" />
    <glyph glyph-name="emdash" unicode="&#x2014;" 
d="M540 315v-113h-567v113h567z" />
    <glyph glyph-name="quoteleft" unicode="&#x2018;" horiz-adv-x="308" 
d="M47 454l89 213h129l-62 -213h-156z" />
    <glyph glyph-name="quoteright" unicode="&#x2019;" horiz-adv-x="308" 
d="M261 667l-89 -213h-129l62 213h156z" />
    <glyph glyph-name="quotesinglbase" unicode="&#x201a;" horiz-adv-x="308" 
d="M261 126l-89 -213h-129l62 213h156z" />
    <glyph glyph-name="quotedblleft" unicode="&#x201c;" horiz-adv-x="528" 
d="M267 454l89 213h129l-62 -213h-156zM47 454l89 213h129l-62 -213h-156z" />
    <glyph glyph-name="quotedblright" unicode="&#x201d;" horiz-adv-x="528" 
d="M261 667l-89 -213h-129l62 213h156zM481 667l-89 -213h-129l62 213h156z" />
    <glyph glyph-name="quotedblbase" unicode="&#x201e;" horiz-adv-x="528" 
d="M261 126l-89 -213h-129l62 213h156zM481 126l-89 -213h-129l62 213h156z" />
    <glyph glyph-name="dagger" unicode="&#x2020;" horiz-adv-x="457" 
d="M423 457v-120h-124v-430h-143v430h-123v120h123v186h143v-186h124z" />
    <glyph glyph-name="daggerdbl" unicode="&#x2021;" horiz-adv-x="457" 
d="M423 490v-120h-124v-197h124v-120h-124v-146h-143v146h-123v120h123v197h-123v120h123v153h143v-153h124z" />
    <glyph glyph-name="bullet" unicode="&#x2022;" horiz-adv-x="667" 
d="M336 477q28 0 53 -11t43.5 -30t29.5 -44t11 -53q0 -29 -11 -54.5t-29.5 -44t-44 -29.5t-53.5 -11q-29 0 -54.5 11t-44 29.5t-29.5 43.5t-11 54t11 54.5t30 44t44.5 29.5t54.5 11z" />
    <glyph glyph-name="ellipsis" unicode="&#x2026;" horiz-adv-x="1000" 
d="M166 157q18 0 33 -6.5t26.5 -18t18 -26.5t6.5 -32q0 -35 -24.5 -59.5t-59.5 -24.5t-59 24.5t-24 59.5q0 34 24.5 58.5t58.5 24.5zM499 157q18 0 33 -6.5t26.5 -18t18 -26.5t6.5 -32q0 -35 -24.5 -59.5t-59.5 -24.5t-59 24.5t-24 59.5q0 34 24.5 58.5t58.5 24.5zM833 157
q18 0 33 -6.5t26.5 -18t18 -26.5t6.5 -32q0 -35 -24.5 -59.5t-59.5 -24.5t-59 24.5t-24 59.5q0 34 24.5 58.5t58.5 24.5z" />
    <glyph glyph-name="perthousand" unicode="&#x2030;" horiz-adv-x="862" 
d="M152 660q28 0 52.5 -10.5t43 -28.5t29 -42.5t10.5 -52.5t-10.5 -52t-28.5 -42t-42.5 -28.5t-52.5 -10.5t-52 10.5t-42 29t-28.5 43t-10.5 52.5q0 27 10.5 51t28.5 42t42 28.5t51 10.5zM153 575q-20 0 -34 -14t-14 -34t14 -34.5t34 -14.5t34.5 14t14.5 34t-14.5 34.5
t-34.5 14.5zM535 667l-438 -694h-77l438 694h77zM400 257q28 0 52.5 -10.5t43 -28.5t29 -42.5t10.5 -52.5q0 -27 -10.5 -51.5t-28.5 -42.5t-42.5 -28.5t-52.5 -10.5t-52 10.5t-42 29t-28.5 43t-10.5 52.5q0 27 10.5 51t28.5 42t42 28.5t51 10.5zM401 172q-20 0 -34 -14
t-14 -34t14 -34.5t34 -14.5t34.5 14.5t14.5 34.5t-14.5 34t-34.5 14zM707 257q28 0 52.5 -10.5t43 -28.5t29 -42.5t10.5 -52.5q0 -27 -10.5 -51.5t-28.5 -42.5t-42.5 -28.5t-52.5 -10.5t-52 10.5t-42 29t-28.5 43t-10.5 52.5q0 27 10.5 51t28.5 42t42 28.5t51 10.5zM708 172
q-20 0 -34 -14t-14 -34t14 -34.5t34 -14.5t34.5 14.5t14.5 34.5t-14.5 34t-34.5 14z" />
    <glyph glyph-name="guilsinglleft" unicode="&#x2039;" horiz-adv-x="275" 
d="M99 110l-49 144l49 143h136l-52 -143l52 -144h-136z" />
    <glyph glyph-name="guilsinglright" unicode="&#x203a;" horiz-adv-x="275" 
d="M176 397l49 -143l-49 -144h-136l52 144l-52 143h136z" />
    <glyph glyph-name="Euro" unicode="&#x20ac;" horiz-adv-x="660" 
d="M43 268l43 128h45q3 28 6 49t7 38.5t8.5 32t10.5 28.5q61 136 222 136q103 0 158.5 -50t73.5 -158l-151 -33q-7 64 -25 91t-54 27q-83 0 -92 -161h146l-43 -128h-104q13 -151 91 -151q35 0 54 30.5t27 100.5l151 -51q-20 -103 -81 -156.5t-161 -53.5q-112 0 -173.5 71
t-71.5 210h-87z" />
    <glyph glyph-name="trademark" unicode="&#x2122;" horiz-adv-x="824" 
d="M340 586h-109v-319h-106v319h-109v81h324v-81zM786 267h-95l4 262l-65 -205h-82l-65 208l4 -265h-93v400h120l75 -228l76 228h121v-400z" />
    </font>
</defs>
</svg>
